<?xml version="1.0" standalone="no"?>
<!DOCTYPE svg PUBLIC "-//W3C//DTD SVG 20010904//EN"
 "http://www.w3.org/TR/2001/REC-SVG-20010904/DTD/svg10.dtd">
<svg version="1.0" xmlns="http://www.w3.org/2000/svg"
 width="1920.000000pt" height="1078.000000pt" viewBox="0 0 1920.000000 1078.000000"
 preserveAspectRatio="xMidYMid meet">
<metadata>
Created by potrace 1.15, written by Peter Selinger 2001-2017
</metadata>
<g transform="translate(0.000000,1078.000000) scale(0.100000,-0.100000)"
fill="#000000" stroke="none">
<path d="M0 9841 c0 -868 1 -940 17 -952 15 -12 16 -12 10 4 -5 13 -1 17 15
17 11 0 27 8 34 18 8 10 13 12 14 5 0 -7 10 -13 23 -13 13 0 29 -6 36 -12 10
-11 11 -9 5 7 -7 18 -6 18 9 6 9 -7 15 -17 12 -21 -3 -5 0 -12 6 -16 8 -4 7
-9 -2 -15 -19 -12 -32 -11 -24 1 3 6 2 10 -4 10 -5 0 -13 -5 -17 -11 -8 -14
14 -29 33 -22 21 8 15 -13 -10 -30 -18 -13 -19 -16 -5 -16 11 -1 15 -6 12 -16
-4 -8 1 -17 10 -21 9 -3 16 -10 16 -16 0 -5 -4 -6 -10 -3 -5 3 -10 1 -10 -4 0
-6 6 -11 13 -11 8 0 7 -4 -3 -11 -13 -9 -13 -10 0 -6 9 2 15 15 15 30 -1 41 8
32 26 -23 15 -48 15 -49 -3 -33 -10 9 -18 11 -18 5 0 -6 5 -14 10 -17 6 -3 10
-13 10 -21 0 -9 -5 -12 -12 -8 -7 5 -8 3 -4 -5 5 -7 14 -10 22 -7 8 3 15 2 15
-2 3 -15 9 -48 15 -82 4 -19 14 -46 22 -58 12 -19 13 -25 3 -31 -9 -6 -8 -10
5 -15 9 -3 15 -9 12 -12 -3 -2 3 -37 14 -77 24 -86 28 -108 35 -164 4 -34 8
-40 21 -35 15 5 15 3 4 -10 -8 -10 -9 -18 -3 -22 6 -4 8 -13 4 -21 -3 -9 -1
-21 5 -28 5 -6 12 -28 16 -47 3 -19 9 -46 12 -60 3 -14 7 -34 9 -45 1 -11 7
-32 13 -47 6 -15 9 -34 6 -42 -3 -8 -1 -17 5 -21 6 -3 11 -15 11 -25 0 -10 7
-25 15 -33 11 -12 12 -17 2 -21 -8 -3 -7 -9 6 -19 10 -8 13 -17 8 -18 -7 -3
-5 -20 4 -49 8 -25 17 -57 20 -72 3 -17 12 -28 22 -28 15 0 14 -2 -3 -15 -17
-13 -17 -14 -2 -15 24 0 50 -43 41 -65 -6 -18 -7 -18 -14 1 -6 14 -8 9 -8 -19
-1 -46 21 -103 53 -132 13 -12 25 -26 27 -31 4 -10 118 -69 134 -69 6 0 16 -4
23 -9 7 -4 16 -5 19 -2 3 3 12 1 20 -5 7 -7 30 -14 51 -16 59 -7 67 -9 77 -15
6 -3 28 -6 50 -7 22 0 56 -4 75 -7 19 -3 58 -7 86 -8 28 -2 57 -7 64 -11 9 -5
15 -4 18 3 2 7 10 12 18 12 9 0 12 -4 9 -10 -3 -5 1 -10 10 -10 9 0 13 5 10
10 -9 15 2 12 19 -6 9 -8 16 -12 16 -7 0 4 65 8 144 8 79 0 143 2 141 5 -2 3
31 5 73 5 43 -1 80 1 85 3 8 4 129 14 161 13 11 0 27 4 37 10 11 6 20 6 24 0
3 -6 22 -4 47 5 29 10 45 11 54 4 8 -8 14 -8 19 0 4 6 14 9 22 6 9 -4 22 -1
29 5 7 6 18 8 24 4 5 -3 10 -2 10 3 0 9 24 12 108 15 23 0 42 5 42 9 0 4 3 7
8 6 4 -1 32 1 62 6 30 4 57 7 60 8 3 0 11 5 18 11 10 8 16 7 22 -2 4 -8 9 -9
11 -3 2 6 18 13 34 16 53 10 109 23 153 35 23 7 46 9 51 6 5 -3 11 0 13 5 2 6
10 12 18 14 69 13 100 21 127 33 18 7 36 14 40 14 18 3 33 7 113 34 47 15 103
36 124 47 22 10 44 18 49 18 22 0 258 125 298 158 108 90 123 120 113 222 -3
30 -7 69 -9 85 -1 17 -5 37 -8 45 -3 8 -5 22 -5 30 0 8 -3 40 -7 70 -4 30 -9
73 -12 95 -2 22 -6 51 -8 65 -1 14 -4 25 -5 25 -3 0 -11 73 -13 123 -1 17 -5
32 -9 32 -3 0 -5 23 -4 50 1 28 -1 50 -6 50 -4 0 -8 19 -8 43 1 35 -5 82 -10
82 -1 0 -3 36 -6 80 -2 44 -7 89 -10 100 -21 76 -22 90 -12 102 8 10 7 12 -6
7 -19 -7 -19 -4 -6 31 5 14 6 24 1 21 -5 -3 -9 4 -9 17 0 81 -5 126 -13 121
-5 -3 -9 -1 -9 5 0 5 6 12 13 14 9 4 9 8 -2 15 -13 9 -13 13 0 28 8 10 9 15 3
11 -7 -4 -14 3 -16 18 -3 14 -1 25 3 25 5 0 9 -7 9 -15 0 -8 5 -15 10 -15 6 0
1 16 -9 36 -20 37 -18 64 4 64 7 0 15 7 19 15 3 8 1 15 -5 15 -6 0 -7 5 -3 12
4 7 3 8 -4 4 -6 -4 -9 -14 -6 -24 5 -16 5 -16 -5 0 -12 17 -5 48 10 48 5 0 12
-7 15 -15 9 -21 19 -19 32 8 6 12 11 16 11 10 1 -7 6 -13 12 -13 7 0 9 10 5
28 -7 26 -7 26 8 6 18 -25 28 -64 30 -113 1 -20 5 -42 9 -48 5 -7 5 -17 2 -23
-3 -5 -2 -10 4 -10 6 0 8 -7 5 -15 -4 -8 -3 -23 1 -32 5 -10 10 -29 12 -43 4
-30 19 -129 29 -185 6 -36 14 -114 16 -155 0 -8 5 -21 11 -27 5 -7 7 -13 5
-13 -5 0 -2 -21 27 -185 9 -49 18 -112 21 -140 6 -59 7 -64 34 -265 35 -262
45 -300 85 -335 19 -16 35 -37 35 -46 0 -23 26 -44 34 -27 5 10 7 10 12 1 3
-7 12 -13 19 -13 7 0 26 -7 41 -15 16 -8 37 -15 46 -15 9 0 19 -4 23 -9 3 -6
13 -10 23 -9 9 0 28 -3 42 -7 58 -16 113 -24 121 -19 5 3 9 0 9 -6 0 -6 10
-10 23 -9 12 2 27 0 34 -4 6 -4 15 -3 18 3 4 7 11 7 18 2 7 -5 19 -9 27 -10
48 -1 155 -12 171 -17 11 -4 19 -2 19 5 0 6 5 8 11 4 16 -10 381 -11 402 -2 9
5 17 5 17 0 0 -10 55 -8 160 7 94 13 107 13 95 2 -6 -5 -62 -18 -125 -30 -63
-12 -124 -24 -135 -26 -11 -2 -23 -5 -27 -5 -4 -1 -31 -8 -60 -16 -29 -8 -69
-16 -88 -19 -52 -7 -134 -24 -220 -45 -110 -28 -288 -71 -305 -75 -11 -2 -76
-20 -144 -39 -69 -20 -130 -36 -136 -36 -7 0 -32 -10 -56 -22 -24 -13 -53 -24
-64 -26 -34 -6 -304 -98 -370 -127 -16 -7 -48 -20 -70 -28 -60 -23 -147 -57
-170 -67 -138 -61 -206 -90 -278 -116 -26 -9 -50 -21 -53 -25 -3 -5 -12 -9
-20 -9 -8 0 -12 5 -9 10 3 6 1 10 -5 10 -7 0 -10 7 -7 15 8 19 -13 31 -25 14
-6 -9 -11 -10 -14 -3 -3 7 -18 9 -44 4 -22 -4 -40 -5 -40 -3 0 2 -13 -5 -30
-17 -16 -12 -30 -30 -30 -41 0 -17 -7 -19 -59 -19 -64 0 -80 14 -60 52 6 11 7
23 3 26 -4 4 -8 2 -10 -3 -4 -10 -116 -10 -143 0 -9 3 -11 0 -7 -10 3 -8 0
-14 -6 -12 -7 1 -13 -10 -14 -25 -3 -34 -26 -77 -31 -61 -4 10 -12 9 -39 -2
-19 -8 -34 -10 -34 -4 0 5 -6 9 -14 9 -7 0 -19 7 -26 15 -11 13 -8 21 16 47
l29 31 -30 -8 c-16 -5 -42 -9 -58 -10 -15 -1 -30 -4 -33 -8 -3 -3 -13 -3 -22
0 -10 4 -13 2 -8 -5 4 -7 2 -12 -3 -12 -6 0 -11 5 -11 11 0 8 -5 7 -16 -2 -9
-7 -28 -12 -43 -11 -15 1 -36 -5 -47 -14 -18 -15 -18 -15 8 -10 21 5 30 1 38
-14 6 -11 8 -25 5 -30 -3 -6 -1 -10 5 -10 6 0 8 -4 5 -10 -3 -5 -17 -10 -30
-10 -13 0 -26 -4 -29 -9 -9 -14 -66 -19 -76 -6 -14 16 5 65 24 65 7 0 16 7 20
15 4 12 0 14 -22 9 -15 -4 -30 -12 -34 -18 -4 -6 -10 -7 -14 -3 -4 4 -12 3
-18 -2 -12 -10 -83 -34 -106 -36 -46 -5 -85 -35 -44 -35 8 0 13 -4 10 -9 -4
-5 -1 -11 5 -13 6 -2 8 -14 4 -30 -5 -20 -15 -29 -38 -34 -17 -3 -40 -12 -49
-18 -14 -8 -21 -8 -27 3 -10 16 -3 51 11 51 5 0 6 5 3 10 -3 6 0 10 8 10 8 0
22 9 32 20 17 18 17 20 1 20 -9 0 -19 -7 -22 -15 -4 -8 -10 -12 -15 -10 -4 3
-26 -6 -48 -20 -29 -18 -39 -29 -34 -42 5 -12 3 -14 -8 -8 -12 7 -12 6 -1 -7
9 -11 10 -18 2 -23 -6 -3 -8 -11 -5 -16 4 -5 2 -9 -3 -9 -5 0 -13 -30 -17 -67
-8 -87 -14 -132 -20 -160 -5 -22 -8 -45 -20 -163 -4 -36 -9 -74 -12 -85 -2
-11 -6 -46 -8 -77 -3 -46 -1 -56 11 -51 8 3 14 0 14 -6 0 -7 13 3 29 22 19 21
48 39 84 50 70 22 71 22 50 -13 -40 -68 -120 -120 -138 -89 -11 17 -23 9 -30
-21 -4 -17 -11 -28 -16 -24 -5 3 -9 -9 -9 -25 0 -21 5 -31 15 -31 12 0 6 -15
-21 -57 -140 -217 -196 -361 -209 -529 -8 -117 43 -306 107 -396 11 -16 21
-34 22 -41 1 -7 12 -28 24 -47 12 -19 27 -51 34 -70 6 -19 18 -40 26 -46 17
-12 27 -74 13 -74 -5 0 -11 6 -14 13 -2 6 -8 9 -12 5 -4 -4 -1 -22 8 -40 32
-69 55 -125 76 -181 29 -79 69 -157 81 -157 6 0 10 3 10 7 0 9 -68 180 -81
206 -6 10 -14 29 -19 42 -7 19 -6 23 5 18 8 -3 15 -9 15 -13 0 -5 11 -21 24
-37 13 -15 25 -37 28 -48 2 -12 10 -19 20 -17 11 2 21 -11 31 -40 8 -24 22
-60 31 -81 16 -38 16 -38 -4 -27 -11 6 -20 16 -20 23 0 8 -3 7 -9 -2 -13 -20
-2 -43 18 -37 21 7 37 -4 46 -33 5 -16 4 -21 -4 -17 -6 4 -11 2 -11 -5 0 -10
-3 -10 -12 0 -10 11 -10 14 0 18 6 3 12 9 12 14 0 5 -9 4 -20 -3 -25 -16 -25
-27 -2 -44 10 -8 12 -13 4 -14 -15 0 1 -30 36 -67 14 -14 22 -33 20 -47 -3
-26 19 -75 42 -92 8 -7 15 -31 16 -55 1 -26 7 -45 15 -48 17 -7 23 -31 9 -31
-5 0 -10 -8 -9 -17 0 -11 3 -13 6 -5 2 6 9 12 14 12 6 0 7 -5 4 -11 -4 -6 4
-22 16 -36 13 -15 18 -23 11 -18 -10 5 -13 2 -10 -11 2 -11 9 -18 15 -17 6 1
8 -9 5 -25 -4 -22 -3 -25 9 -15 12 9 14 7 15 -15 1 -15 2 -41 3 -59 0 -17 12
-45 26 -61 14 -17 25 -37 25 -45 0 -8 3 -17 8 -19 8 -3 44 -76 48 -96 1 -8 10
-22 18 -31 9 -10 16 -21 16 -25 0 -4 7 -14 15 -22 8 -9 15 -26 15 -39 0 -17 4
-23 14 -19 9 4 13 -3 13 -23 0 -15 8 -45 17 -65 9 -21 16 -41 16 -46 0 -5 7
-15 15 -22 11 -9 12 -16 5 -25 -8 -9 -6 -17 5 -28 8 -9 15 -20 15 -26 0 -6 7
-11 16 -11 13 0 14 -3 5 -14 -8 -10 -7 -19 7 -37 11 -13 25 -42 32 -64 7 -22
21 -55 31 -72 10 -18 21 -45 24 -60 2 -16 10 -32 17 -38 7 -5 13 -19 12 -30 0
-11 6 -28 14 -37 7 -9 12 -25 10 -35 -2 -11 5 -22 17 -28 13 -7 20 -21 21 -40
0 -17 6 -40 12 -52 7 -12 12 -26 11 -30 -1 -4 -1 -14 0 -22 1 -11 4 -11 18 0
15 12 16 12 10 -4 -8 -21 9 -60 22 -52 5 3 11 -2 15 -10 3 -8 1 -15 -5 -15 -5
0 -3 -10 5 -23 7 -12 13 -33 11 -47 -1 -14 1 -27 4 -30 14 -12 31 -52 26 -60
-4 -6 1 -10 9 -10 9 0 16 -8 16 -18 0 -10 7 -27 15 -39 8 -12 12 -29 9 -38 -5
-11 0 -18 14 -22 13 -3 19 -10 15 -19 -3 -8 0 -14 6 -14 15 0 14 -27 -1 -32
-8 -3 -4 -12 10 -26 11 -11 26 -38 31 -59 6 -21 24 -50 40 -65 16 -15 29 -38
30 -50 1 -44 8 -73 24 -110 9 -21 17 -44 17 -52 0 -7 11 -21 25 -30 14 -9 24
-24 23 -34 -4 -48 2 -71 17 -66 11 5 13 2 9 -10 -3 -9 -1 -16 4 -16 6 0 11
-12 11 -27 2 -54 4 -63 18 -63 7 0 13 -4 13 -10 0 -5 -5 -10 -11 -10 -6 0 0
-13 13 -29 13 -15 26 -26 31 -24 4 2 7 -9 7 -26 0 -17 11 -54 24 -83 13 -29
32 -77 42 -106 11 -33 34 -69 60 -94 25 -25 40 -47 36 -56 -3 -10 0 -13 9 -10
28 9 19 35 -29 84 -37 38 -54 65 -72 119 -12 39 -29 79 -36 90 -8 11 -14 29
-14 40 1 36 64 -47 79 -104 7 -28 17 -53 22 -57 14 -9 10 34 -6 66 -20 39 -3
39 40 1 18 -16 58 -44 89 -62 42 -25 56 -39 56 -56 0 -13 9 -42 19 -66 21 -47
33 -77 36 -92 2 -9 31 -75 43 -97 2 -5 -1 -8 -8 -8 -6 0 -9 4 -6 9 3 4 -6 13
-19 19 -14 7 -25 16 -25 22 0 5 -7 10 -15 10 -8 0 -24 9 -35 20 -12 12 -20 15
-20 8 0 -7 -7 -4 -16 7 -8 11 -20 21 -27 21 -7 1 -18 2 -25 3 -7 0 -10 6 -6
13 5 7 3 8 -6 3 -10 -6 -9 -11 5 -21 10 -7 22 -11 26 -8 5 3 6 -2 3 -10 -4
-11 0 -16 10 -16 9 0 16 -4 16 -10 0 -5 7 -10 15 -10 9 0 15 -9 15 -21 0 -15
5 -19 16 -15 8 3 13 2 10 -3 -6 -10 17 -31 55 -50 15 -7 50 -33 77 -57 53 -46
68 -54 58 -29 -8 21 -1 19 28 -10 14 -14 28 -25 31 -25 4 0 15 -10 24 -22 10
-11 29 -22 42 -23 13 -1 23 -8 21 -14 -1 -8 7 -11 21 -9 12 1 37 -8 55 -20 17
-13 37 -20 42 -17 6 4 17 1 25 -5 8 -7 22 -10 30 -6 8 3 15 1 15 -3 0 -5 16
-9 36 -9 19 0 44 -8 54 -17 17 -15 22 -16 37 -4 11 9 14 10 9 2 -4 -8 -2 -13
5 -13 7 0 21 -8 31 -17 18 -16 18 -16 11 3 -7 18 -6 18 20 1 15 -10 41 -19 56
-20 16 -1 27 -6 23 -11 -3 -5 2 -7 11 -3 9 3 19 2 22 -3 4 -6 17 -10 31 -10
13 0 24 -4 24 -10 0 -5 15 -8 33 -7 17 2 40 0 50 -6 24 -11 33 -2 17 18 -8 9
-8 15 -2 15 6 0 14 -10 18 -22 6 -20 8 -20 19 -5 13 18 31 24 20 7 -3 -5 1
-10 10 -10 12 0 13 4 7 18 -5 9 -12 29 -16 45 -6 26 -5 27 36 28 l43 2 -43 7
c-24 3 -47 11 -50 16 -4 6 -18 11 -31 11 -14 1 -37 15 -52 30 -25 27 -89 177
-89 211 0 11 -3 13 -11 5 -15 -15 56 -198 93 -239 15 -17 17 -24 7 -30 -7 -4
-14 -3 -17 4 -2 6 -10 8 -18 5 -8 -3 -20 -1 -27 5 -6 5 -20 8 -30 7 -9 -2 -17
1 -17 7 0 6 -7 8 -15 5 -8 -4 -17 -1 -21 5 -4 7 -9 6 -15 -3 -6 -10 -11 -11
-16 -3 -12 17 -53 28 -53 13 0 -8 -4 -8 -12 -2 -7 6 -25 13 -40 17 -16 3 -28
11 -28 17 0 20 -36 47 -86 63 -29 9 -60 26 -69 36 -24 27 -95 203 -85 213 8 9
92 -13 131 -34 13 -7 37 -13 54 -14 16 -1 75 -12 129 -23 87 -20 172 -32 326
-47 116 -12 460 -24 552 -20 188 8 421 26 543 41 66 8 138 16 160 19 22 3 85
14 140 25 55 10 141 26 190 35 93 17 366 85 638 159 146 40 568 195 732 268
309 138 586 284 819 432 167 105 157 100 165 88 4 -6 54 -27 111 -46 95 -32
105 -38 108 -61 4 -27 -41 -79 -113 -134 l-30 -22 33 18 c63 34 111 82 118
118 5 31 9 34 37 31 18 -1 46 -9 62 -18 17 -9 55 -21 85 -27 30 -6 66 -14 80
-16 58 -12 115 -15 95 -6 -27 13 -10 13 56 1 180 -32 596 -51 779 -35 25 2 77
7 115 10 92 8 319 42 422 62 70 14 80 19 70 32 -10 12 -8 13 16 9 30 -6 47 9
26 23 -8 5 -26 9 -41 9 -21 0 -28 5 -28 20 0 11 7 20 15 20 8 0 12 -6 9 -14
-4 -11 4 -16 33 -18 31 -2 39 -7 41 -25 2 -13 11 -23 20 -24 14 0 13 -2 -3 -9
-18 -8 -17 -9 8 -9 15 -1 27 1 27 5 0 3 -23 41 -51 84 -41 65 -54 78 -67 71
-10 -5 -57 -16 -107 -25 -49 -10 -97 -21 -106 -26 -22 -11 -175 -34 -191 -27
-7 2 -40 0 -73 -4 -33 -5 -107 -12 -165 -15 -58 -2 -117 -10 -132 -16 -25 -9
-69 -8 -213 6 -37 4 -218 16 -330 21 -80 4 -127 14 -166 35 -21 10 -39 16 -42
13 -3 -3 -11 -2 -17 2 -6 4 -30 9 -53 10 -23 2 -53 7 -67 10 -14 4 -37 6 -52
6 -16 0 -28 4 -28 9 0 5 -22 12 -50 16 -27 4 -50 9 -50 13 0 3 -12 7 -26 8
-53 3 -43 19 58 93 55 41 126 98 156 125 30 28 52 43 48 35 -3 -8 -9 -22 -12
-32 -3 -9 -14 -18 -24 -21 -10 -2 -23 -14 -29 -25 -10 -19 -8 -22 26 -28 21
-3 58 -13 83 -21 25 -8 59 -15 77 -16 17 -2 35 -6 39 -10 9 -9 -63 -86 -90
-96 -12 -5 -15 -10 -8 -15 6 -3 39 23 76 59 52 53 66 62 66 45 0 -13 9 -24 25
-30 27 -10 35 -50 10 -50 -8 0 -15 -7 -15 -15 0 -8 6 -15 14 -15 23 0 39 29
38 70 l-2 38 43 -3 c23 -2 44 -4 46 -4 2 -1 -3 -9 -11 -18 -8 -10 -18 -25 -22
-33 -4 -8 5 0 21 19 28 32 32 33 79 27 27 -4 107 -9 178 -11 142 -5 151 -8
187 -75 15 -26 18 -29 13 -10 -8 33 -32 70 -44 70 -6 0 -10 5 -10 10 0 6 24
10 53 10 63 0 364 27 427 38 42 7 47 5 72 -21 14 -16 34 -44 44 -63 20 -36 21
-36 135 -8 31 8 66 14 78 14 12 0 21 4 21 9 0 13 -26 32 -34 24 -10 -11 -114
-32 -158 -32 -32 -1 -40 4 -53 29 -8 16 -23 33 -32 39 -10 5 -15 13 -11 16 10
10 201 44 212 37 9 -5 8 -3 -13 41 -14 27 -31 36 -31 16 0 -6 -16 -9 -38 -8
-21 2 -43 0 -49 -4 -11 -7 -122 -27 -179 -32 -17 -2 -40 -5 -50 -9 -18 -5
-112 -13 -274 -23 -122 -7 -434 -3 -443 6 -6 6 -17 5 -28 -2 -13 -8 -24 -8
-43 3 -14 7 -24 15 -22 17 2 3 60 4 128 2 109 -1 246 0 303 3 11 0 31 0 45 0
14 -1 54 1 90 4 36 3 88 7 115 10 28 2 79 8 115 14 36 6 83 12 105 15 94 9
154 22 168 34 9 7 25 10 37 6 23 -7 25 2 5 29 -11 15 -17 16 -28 7 -8 -6 -30
-11 -48 -11 -19 1 -61 -4 -94 -10 -98 -16 -285 -41 -350 -46 -33 -2 -67 -4
-75 -5 -8 -1 -26 -1 -40 -1 -14 1 -81 0 -150 -2 -134 -4 -183 0 -178 15 2 6
87 12 198 14 197 4 440 25 570 49 19 4 49 8 65 10 17 1 40 8 52 14 12 7 29 9
37 6 22 -8 20 -2 -12 53 -16 26 -50 89 -77 138 -26 50 -55 101 -63 115 -8 14
41 -32 109 -101 233 -236 386 -353 724 -555 52 -31 259 -134 270 -134 3 0 34
-13 68 -29 66 -31 240 -93 322 -116 28 -8 84 -23 125 -35 41 -12 93 -25 115
-30 22 -4 72 -15 111 -24 106 -23 328 -54 435 -62 l94 -6 3 27 c1 14 8 38 16
52 l14 27 53 -52 c30 -28 49 -52 43 -52 -5 0 -29 19 -52 41 -44 44 -51 42 -55
-17 l-2 -29 115 -7 c63 -4 158 -5 210 -3 219 9 347 16 370 19 14 2 31 4 38 5
7 0 10 6 7 11 -4 6 7 10 24 10 36 0 35 -2 16 43 -17 41 -20 71 -4 44 5 -9 17
-33 25 -52 l14 -34 -32 -10 c-28 -9 -25 -10 22 -5 97 9 190 26 190 34 0 4 18
6 40 3 33 -5 40 -3 40 11 0 9 5 16 11 16 5 0 7 -4 4 -10 -3 -5 3 -10 15 -10
12 0 19 4 15 9 -7 13 3 18 55 25 31 4 39 3 25 -3 -28 -13 -15 -13 47 0 29 7
57 18 63 25 5 7 24 15 40 19 28 5 28 4 -5 -9 -51 -21 -28 -19 62 6 51 14 74
24 66 30 -8 4 2 5 22 2 27 -4 32 -3 20 5 -12 10 -11 11 10 10 14 -1 34 -1 45
0 17 1 18 3 5 12 -12 8 -9 9 13 5 28 -7 60 5 86 31 8 8 25 13 37 10 13 -2 21
-1 19 4 -3 4 -1 10 5 14 5 3 10 1 10 -4 0 -6 5 -11 11 -11 5 0 7 5 3 12 -5 8
-2 9 10 5 9 -4 15 -3 12 2 -3 5 1 12 10 15 22 8 26 8 19 -4 -3 -6 1 -7 9 -4 9
3 13 11 9 17 -4 6 2 8 15 5 14 -4 20 -2 16 4 -4 6 2 8 15 3 14 -4 21 -2 19 5
-2 6 20 20 47 30 40 16 46 16 30 3 -18 -14 -18 -15 -2 -9 10 3 21 6 23 6 2 0
4 7 4 15 0 15 4 17 53 20 15 1 31 6 35 10 4 5 -1 5 -10 2 -41 -15 -13 3 58 37
83 39 88 41 79 26 -3 -6 1 -7 9 -4 9 3 14 10 11 15 -3 4 3 13 14 18 29 16 38
13 15 -4 -18 -14 -17 -15 8 -4 15 7 25 15 23 19 -7 11 74 52 87 44 7 -5 8 -2
3 6 -5 8 -3 11 6 8 8 -3 20 2 27 11 11 13 12 13 7 1 -3 -8 2 -5 11 7 9 13 22
23 28 23 6 0 4 -5 -4 -10 -12 -8 -12 -10 -1 -10 7 0 28 17 47 37 19 20 37 34
41 30 3 -4 1 -7 -5 -7 -7 0 -12 -5 -12 -10 0 -6 8 -5 19 2 11 7 19 16 18 21
-1 6 14 19 33 30 24 15 32 17 25 6 -5 -8 2 -1 16 15 19 22 28 26 31 15 4 -10
9 -5 18 13 7 16 18 28 23 28 5 0 3 -7 -4 -17 -13 -15 -12 -15 8 -3 12 8 20 17
17 21 -5 9 41 39 69 44 11 3 25 10 31 16 8 8 4 8 -14 -1 -18 -8 -13 -1 15 24
42 37 67 48 44 19 -13 -16 -12 -17 3 -4 10 7 16 17 13 21 -5 8 97 90 111 90 4
0 -1 -10 -12 -22 l-19 -23 22 19 c13 10 20 22 18 27 -3 4 10 19 28 33 37 28
52 33 41 14 -4 -8 -3 -9 2 -5 5 5 9 16 9 24 0 9 6 18 14 21 9 3 11 0 6 -9 -5
-8 1 -5 13 5 25 21 31 36 7 16 -9 -7 -15 -8 -15 -2 0 13 29 24 42 15 6 -3 8
-1 5 4 -4 6 0 16 8 23 8 7 15 9 15 5 0 -5 9 0 20 10 11 10 17 22 13 28 -3 5
-1 7 5 4 11 -7 173 146 291 276 83 92 247 298 311 391 l45 66 175 -8 c353 -14
671 -4 885 29 360 56 622 144 814 275 73 49 132 100 130 111 -4 21 2 32 15 27
8 -3 17 0 22 7 4 8 3 10 -5 5 -6 -4 -18 0 -27 8 -14 15 -14 16 0 16 9 0 16 9
16 21 0 11 5 17 10 14 6 -3 10 1 10 9 0 9 4 16 9 16 5 0 11 11 13 25 6 28 3
30 -15 15 -81 -69 -87 -71 -87 -37 0 19 -3 17 -16 -11 -9 -17 -20 -32 -24 -32
-5 0 -27 -16 -51 -35 -23 -20 -48 -34 -56 -31 -8 3 -16 -1 -19 -8 -7 -19 -71
-49 -89 -42 -7 2 -19 -2 -25 -10 -7 -8 -19 -14 -26 -14 -8 0 -34 -9 -58 -21
-24 -11 -54 -21 -67 -21 -13 -1 -31 -7 -39 -14 -18 -14 -51 -25 -93 -29 -47
-5 -247 -44 -284 -56 -18 -5 -69 -12 -115 -14 -46 -2 -144 -9 -219 -14 -149
-12 -628 -5 -643 9 -5 5 0 23 11 42 18 30 23 33 62 30 37 -3 42 -1 39 14 -2
10 -13 18 -25 19 -13 1 -25 4 -28 7 -3 2 8 29 24 58 l29 53 284 -2 c155 -1
315 2 353 8 39 5 108 12 155 16 183 12 573 91 615 125 6 4 33 15 60 23 68 20
184 75 218 104 32 26 53 29 60 11 3 -7 6 -3 6 9 1 13 14 31 34 44 43 30 82 70
90 93 9 24 -2 20 -100 -42 -73 -46 -109 -64 -233 -119 -168 -75 -384 -126
-694 -163 -147 -18 -192 -20 -175 -7 2 2 74 11 159 21 477 53 836 181 1037
370 61 57 34 63 -44 10 -136 -94 -362 -189 -565 -238 -43 -10 -33 12 10 23 20
6 62 17 92 25 188 49 407 157 527 260 18 15 20 22 11 33 -8 10 -7 12 5 8 8 -4
18 -1 23 6 4 8 3 10 -4 5 -15 -9 -15 -1 -1 25 8 15 7 24 -2 35 -10 12 -10 15
2 12 9 -2 14 5 14 18 0 11 6 28 13 37 8 9 12 34 11 59 -3 34 0 42 12 41 12 -2
15 9 13 56 -1 67 9 96 26 71 8 -11 9 -8 4 13 -3 15 -1 33 5 41 9 10 9 15 1 18
-8 2 -8 12 0 33 7 17 13 43 16 59 2 16 10 36 19 46 12 13 12 19 2 29 -10 11
-7 13 13 8 l25 -6 -22 18 -22 19 22 6 c18 5 19 8 8 15 -12 8 -12 12 -2 25 7 8
11 23 10 33 -1 10 3 31 10 47 6 16 9 31 6 34 -2 3 0 11 7 19 6 7 11 27 10 43
0 17 6 31 15 34 10 4 13 14 9 31 -4 15 1 37 13 59 14 25 17 36 8 40 -7 2 -5 5
4 5 12 1 18 15 23 50 4 27 12 52 19 54 9 4 9 6 0 6 -17 1 -16 19 2 37 10 11
12 21 5 39 -8 22 -7 25 11 25 29 0 65 46 93 120 49 130 78 249 57 236 -6 -4
-11 -16 -11 -26 0 -23 -27 -95 -48 -128 -11 -17 -17 -20 -23 -10 -4 7 -4 17 1
23 4 5 11 26 14 45 3 19 10 50 15 68 5 17 7 32 3 32 -3 0 6 12 21 27 50 54 87
161 146 428 33 147 52 200 76 203 11 1 48 7 83 14 l62 12 0 458 c-1 382 -3
458 -15 458 -8 0 -17 -4 -20 -10 -3 -5 -16 -9 -28 -8 -12 0 -29 -2 -37 -6 -10
-4 -30 9 -60 39 -42 43 -44 47 -27 60 10 7 48 18 85 25 113 19 102 -1 102 184
0 185 13 159 -110 211 -110 45 -128 55 -133 68 -3 7 -6 7 -6 1 -1 -6 -24 0
-53 15 -83 41 -153 71 -166 71 -7 0 -12 5 -12 10 0 6 -13 10 -29 10 -15 0 -40
9 -53 20 -14 10 -28 16 -32 13 -3 -3 -6 -2 -6 4 0 7 -40 14 -98 18 -158 11
-183 12 -188 4 -3 -5 -12 -5 -20 -2 -9 3 -20 0 -25 -8 -7 -12 -9 -12 -9 1 0
10 -5 8 -15 -7 -8 -12 -30 -25 -48 -28 -17 -4 -49 -16 -70 -27 -21 -10 -42
-16 -47 -13 -6 3 -10 2 -10 -4 0 -6 -17 -13 -37 -16 -21 -4 -55 -15 -75 -25
-26 -13 -38 -15 -38 -7 0 7 -7 4 -15 -6 -12 -17 -19 -18 -72 -7 -32 7 -72 19
-90 26 -17 8 -36 14 -42 14 -22 0 -10 28 14 34 34 9 31 21 -5 23 -18 1 -30 -3
-30 -10 0 -8 -3 -7 -9 2 -7 11 -12 10 -26 -6 -15 -18 -23 -19 -68 -11 -29 5
-63 16 -76 25 l-24 16 27 14 c16 8 37 13 47 10 10 -3 19 -2 19 2 0 11 44 8 53
-4 5 -6 12 -4 20 6 23 29 61 43 114 40 34 -1 63 4 85 15 18 10 51 18 73 19 34
2 43 -2 52 -21 8 -17 7 -21 -2 -18 -7 3 -15 -4 -17 -14 -5 -18 -2 -18 31 -10
20 6 54 12 76 15 22 2 47 7 55 10 8 3 22 5 32 4 9 -1 20 3 24 10 4 8 3 9 -4 5
-7 -4 -12 -1 -12 7 0 9 -11 14 -31 15 -17 0 -36 5 -42 9 -15 11 -71 29 -117
38 -19 4 -39 10 -45 14 -5 3 -19 7 -30 8 -16 1 -111 25 -230 57 -5 2 -17 6
-25 9 -29 11 -95 30 -110 32 -8 1 -22 5 -30 8 -8 4 -26 9 -40 12 -73 15 -152
36 -210 55 -42 14 -93 22 -142 22 -43 1 -78 5 -78 10 0 4 -7 8 -15 8 -8 0 -15
-4 -15 -8 0 -4 -44 -8 -97 -7 -58 0 -99 -4 -100 -10 -1 -5 -24 -13 -50 -17
-74 -10 -88 -13 -93 -18 -17 -19 -70 -49 -70 -40 0 13 -57 8 -87 -9 -13 -6
-23 -9 -23 -6 0 3 -10 -4 -22 -15 -15 -14 -32 -19 -53 -17 -16 2 -55 -5 -85
-15 -69 -24 -185 -46 -231 -43 -90 6 -353 17 -429 18 -93 0 -110 8 -242 102
-31 22 -66 47 -77 55 -12 8 -58 38 -103 66 -45 28 -84 56 -86 63 -3 10 0 11
19 1 13 -7 66 -13 126 -14 56 0 103 -3 103 -6 0 -3 57 -6 128 -7 70 0 172 -2
227 -2 101 -2 378 5 383 9 1 1 17 2 35 2 17 1 37 4 42 8 6 3 26 7 45 9 19 1
53 7 75 13 22 6 43 11 48 10 4 -1 24 7 44 18 21 11 41 20 46 20 10 0 97 87 97
98 0 10 35 28 68 35 12 3 22 1 22 -4 0 -5 11 -9 24 -9 14 0 27 -4 31 -10 3 -5
12 -7 20 -3 8 3 15 0 15 -7 0 -6 8 -10 18 -9 17 2 39 -4 78 -23 11 -5 27 -9
35 -7 8 1 26 -3 40 -8 14 -6 36 -13 50 -15 13 -1 26 -6 29 -10 3 -4 21 -9 40
-10 19 -2 37 -5 40 -8 10 -11 78 -30 104 -30 18 0 25 -4 20 -12 -4 -7 -3 -8 5
-4 6 4 18 3 25 -3 7 -6 40 -16 72 -22 32 -6 68 -16 79 -22 36 -20 87 -36 101
-30 8 3 14 0 14 -6 0 -6 8 -11 18 -11 9 0 36 -7 59 -15 23 -8 49 -12 56 -9 8
3 17 -2 20 -10 4 -9 13 -13 22 -10 8 4 22 1 30 -6 8 -7 15 -10 15 -6 0 4 14 0
30 -9 17 -9 30 -13 30 -9 0 4 6 1 14 -5 8 -6 28 -13 45 -14 17 -1 31 -5 31 -9
0 -5 14 -8 31 -8 17 0 40 -5 52 -12 12 -7 27 -13 32 -14 6 -2 66 -19 135 -39
69 -20 134 -38 145 -39 11 -2 32 -8 46 -14 15 -6 30 -8 33 -5 3 4 18 -4 33
-18 14 -13 23 -18 19 -11 -6 9 0 11 24 7 17 -3 39 -9 48 -14 34 -17 124 -40
138 -34 8 3 14 1 14 -4 0 -5 8 -9 18 -10 36 -3 72 -10 78 -16 3 -3 12 -3 20 0
8 3 20 1 27 -5 6 -5 26 -12 42 -15 113 -21 271 -59 278 -66 5 -5 16 -7 23 -4
8 3 14 1 14 -4 0 -5 8 -9 18 -10 9 -1 29 -5 45 -9 l27 -6 0 1266 0 1266 -9600
0 -9600 0 0 -939z m4060 725 c19 -3 58 -7 85 -11 52 -6 159 -14 255 -19 77 -4
76 -4 89 -28 6 -13 9 -15 7 -6 -4 12 2 18 22 20 48 5 112 -8 126 -27 14 -20
36 -13 36 11 0 8 5 12 10 9 6 -4 9 -9 7 -13 -7 -13 29 -37 56 -39 18 -1 27 3
27 13 0 8 8 14 18 13 10 0 12 -3 5 -6 -7 -2 -13 -8 -13 -13 0 -12 79 -3 96 11
11 9 14 8 14 -9 0 -13 14 -31 35 -45 19 -13 32 -27 28 -31 -4 -4 1 -4 10 0 15
5 17 2 13 -17 -6 -31 -25 -77 -25 -63 -1 14 -61 16 -61 3 0 -6 5 -7 10 -4 6 4
22 0 35 -9 19 -13 23 -21 16 -39 -7 -17 -15 -21 -37 -19 -16 2 -32 10 -36 17
-11 19 -63 -32 -72 -70 -11 -46 -81 -105 -125 -106 -20 0 -49 -2 -64 -3 -16
-1 -31 2 -33 6 -3 5 -9 6 -13 3 -5 -2 -23 0 -42 5 -19 6 -55 12 -81 15 -27 3
-67 7 -90 11 -24 3 -50 6 -58 6 -8 1 -20 5 -27 10 -7 5 -16 7 -21 4 -6 -3 -15
0 -21 8 -7 8 -23 17 -37 20 -14 4 -22 11 -19 16 3 5 -13 14 -35 20 -22 6 -40
13 -40 15 0 2 10 14 23 25 l22 22 -25 -2 c-52 -4 -62 -1 -55 20 5 16 2 20 -14
20 -14 0 -19 -5 -15 -15 5 -11 0 -14 -20 -13 -14 1 -26 6 -26 11 0 4 -4 6 -9
2 -5 -3 -12 -1 -16 5 -3 5 -1 10 4 10 6 0 11 5 11 10 0 6 -10 10 -21 10 -17 0
-20 -5 -17 -25 6 -30 -7 -42 -19 -20 -8 13 -11 12 -22 -8 -9 -17 -19 -23 -32
-20 -22 6 -24 14 -6 32 10 10 9 12 -3 9 -23 -5 -25 55 -3 78 10 9 17 20 16 23
-8 16 44 3 54 -14 7 -11 12 -15 13 -10 0 11 116 14 135 4 6 -3 22 -5 38 -4 15
0 27 -2 27 -5 0 -3 26 -5 58 -4 32 0 67 -5 80 -13 19 -12 22 -11 22 2 0 12 5
13 18 7 9 -5 40 -10 67 -11 28 -1 54 -6 59 -11 4 -4 20 -5 35 0 15 4 38 6 52
4 65 -8 86 -13 112 -23 16 -6 32 -9 36 -6 4 2 21 1 37 -4 16 -4 44 -4 62 0 28
6 32 4 33 -15 0 -14 2 -16 6 -6 3 8 14 23 24 33 23 25 14 51 -15 41 -36 -12
-166 -5 -199 11 -35 18 -40 18 -32 5 8 -13 3 -13 -32 1 -15 6 -44 10 -63 9
-19 0 -42 -1 -50 -1 -30 0 -75 7 -88 14 -7 5 -12 3 -12 -5 0 -9 -3 -9 -8 -2
-4 7 -40 10 -92 9 -47 -1 -91 3 -98 8 -8 6 -35 10 -61 8 -35 -2 -53 2 -66 15
-15 15 -19 16 -29 3 -12 -15 -63 -19 -83 -6 -8 5 -13 3 -13 -3 0 -8 -10 -9
-30 -5 -27 6 -32 3 -43 -22 -7 -15 -18 -29 -25 -30 -18 -4 -15 12 7 31 18 16
18 19 3 37 -9 10 -25 19 -35 19 -13 0 -18 6 -15 23 2 13 10 22 21 22 10 0 22
6 26 13 7 11 9 10 14 -2 8 -20 57 -22 57 -2 0 7 12 26 26 41 22 24 30 27 67
21 23 -4 58 -8 77 -10z m7797 -1160 c-3 -8 -205 -55 -243 -56 -6 0 -23 11 -39
24 -41 36 -25 42 140 52 49 3 91 7 93 9 8 7 52 -19 49 -29z m-720 -135 c20
-22 20 -27 7 -34 -26 -15 -186 -56 -233 -60 -39 -3 -48 0 -68 24 -26 31 -29
49 -9 49 8 0 16 3 19 8 2 4 2 2 1 -5 -5 -19 13 -25 20 -7 3 8 10 13 15 9 5 -3
13 0 17 6 4 8 3 9 -4 5 -7 -4 -12 -2 -12 3 0 16 20 13 26 -3 4 -12 10 -12 35
1 16 8 36 12 44 9 8 -3 15 -1 15 4 0 6 -5 10 -12 10 -23 0 3 13 39 20 43 7 69
-2 100 -39z m-742 -196 c13 -16 24 -36 25 -43 0 -11 -96 -62 -119 -62 -10 0
-67 -23 -103 -41 -36 -18 -67 -10 -83 22 -10 18 -13 38 -9 47 4 10 6 20 6 25
-1 4 4 7 11 7 6 1 30 9 52 20 22 11 50 19 63 20 12 0 22 4 22 9 0 10 56 27 88
26 12 0 33 -13 47 -30z m644 -54 c12 -21 7 -26 -94 -78 -87 -44 -104 -48 -120
-26 -8 10 -15 24 -15 31 0 14 126 77 170 85 45 8 49 7 59 -12z m-550 -163
c-35 -23 -66 -44 -69 -48 -3 -3 -26 -20 -51 -38 -34 -22 -49 -28 -57 -20 -8 8
-15 8 -27 -2 -8 -7 -15 -9 -15 -6 0 4 -5 4 -11 0 -7 -4 -30 -9 -51 -11 -22 -2
-48 -8 -58 -13 -10 -5 -26 -7 -35 -4 -13 5 -5 13 32 30 26 13 54 22 61 19 7
-3 10 0 7 5 -3 6 3 10 14 10 11 0 22 4 26 9 3 5 29 17 58 26 28 10 66 23 82
30 17 7 53 22 80 33 79 33 85 26 14 -20z m3812 -43 c16 -9 35 -12 42 -8 6 4
31 8 54 10 52 3 59 -4 149 -140 99 -150 107 -152 -173 55 -99 74 -126 98 -108
98 4 0 19 -7 36 -15z m-7371 -293 c0 -4 16 -6 36 -4 35 4 36 4 23 -19 -16 -32
-81 -109 -91 -109 -4 0 -5 7 -2 15 6 14 -23 21 -65 15 -8 -1 -11 4 -8 12 3 9
-3 14 -18 14 -13 0 -23 -4 -22 -9 2 -10 -20 -16 -83 -22 -19 -2 -36 -4 -37 -4
-9 -3 -17 6 -15 14 2 6 0 7 -3 3 -4 -4 -16 -3 -26 3 -21 11 -16 34 14 63 16
16 23 17 40 7 16 -10 21 -10 28 1 6 8 9 9 9 1 0 -7 16 -10 45 -8 25 1 42 -1
40 -5 -3 -5 0 -12 7 -16 7 -4 10 -4 6 1 -13 14 37 43 70 41 18 -1 32 1 32 6 0
4 5 8 10 8 6 0 10 -4 10 -8z m6788 -40 c23 -19 42 -38 42 -43 0 -10 -99 -12
-189 -3 -53 6 -67 12 -104 46 l-42 38 125 -2 126 -3 42 -33z m-665 -28 c22
-20 35 -40 30 -45 -4 -4 -63 -16 -130 -26 l-123 -17 -35 34 c-19 19 -35 39
-35 46 0 17 114 40 210 42 39 1 50 -4 83 -34z m-674 -138 c18 -19 30 -39 27
-45 -8 -12 -222 -81 -252 -81 -19 0 -74 59 -74 80 0 14 31 26 185 69 58 17 80
12 114 -23z m1591 4 c12 -8 11 -9 -7 -10 -12 0 -34 -5 -50 -12 -15 -6 -34 -12
-41 -14 -17 -3 -130 -62 -142 -74 -3 -3 -32 -23 -65 -46 -58 -39 -63 -40 -137
-39 -42 0 -75 -2 -72 -6 2 -4 -8 -6 -23 -6 -15 0 -29 -6 -31 -12 -2 -6 -8 -11
-13 -11 -6 0 -7 5 -3 11 9 15 -38 0 -48 -15 -5 -7 -8 -5 -8 5 0 11 -9 16 -29
15 -16 -1 -27 -4 -25 -7 6 -11 -55 -16 -64 -7 -6 6 -16 2 -26 -7 -9 -9 -20
-13 -26 -10 -5 3 -10 1 -10 -5 0 -8 -9 -10 -27 -5 -34 9 -54 9 -113 -1 -25 -4
-64 -8 -87 -8 -24 -1 -43 -5 -43 -10 0 -4 -8 -5 -17 -1 -31 12 -67 11 -91 -2
-12 -8 -27 -11 -32 -8 -5 3 -11 2 -14 -3 -5 -9 -43 -8 -69 3 -10 4 -35 0 -60
-10 -23 -9 -44 -17 -47 -16 -3 0 -23 -4 -45 -10 -29 -8 -44 -8 -57 0 -13 8
-24 8 -38 1 -10 -5 -34 -10 -52 -10 -19 0 -38 -4 -43 -9 -16 -14 -75 -22 -75
-10 0 6 -7 9 -15 5 -8 -3 -15 0 -15 6 0 7 -4 7 -13 -1 -8 -6 -17 -8 -20 -5 -3
3 -11 3 -18 -2 -7 -4 -33 -9 -58 -11 -25 -2 -48 -9 -52 -15 -4 -7 -9 -7 -14 1
-5 9 -10 9 -21 0 -12 -9 -13 -9 -9 3 7 18 -21 17 -68 -1 -58 -23 -50 -10 13
20 94 45 359 139 515 184 33 9 71 21 85 25 122 41 493 111 692 131 242 24 692
29 728 9z m-7120 -15 c-5 -14 -32 -61 -59 -103 -77 -122 -124 -207 -201 -362
-39 -80 -77 -145 -83 -146 -43 -2 -368 -15 -497 -19 -85 -3 -211 -8 -280 -11
-127 -6 -156 -2 -65 10 28 4 59 8 70 10 11 2 48 7 83 11 34 4 62 11 62 16 0 5
7 6 15 3 8 -4 31 1 50 10 19 10 39 14 44 11 6 -3 27 2 49 10 22 9 50 18 63 19
51 8 89 19 89 27 0 5 7 6 15 3 8 -4 15 -2 15 4 0 6 19 13 42 17 23 4 48 14 56
21 7 8 21 14 31 14 10 0 21 3 25 8 4 4 11 7 15 7 26 0 180 114 155 115 -5 0
-1 7 9 14 25 20 35 63 25 115 -5 28 -4 49 2 57 6 6 8 24 4 40 -6 21 -4 25 7
19 8 -5 7 0 -3 12 -22 24 -23 33 -3 33 9 0 18 6 21 14 3 8 12 17 20 20 8 3 13
2 10 -3 -3 -5 27 -7 67 -4 39 2 84 3 100 3 16 0 30 6 33 15 4 8 10 15 15 15 5
0 4 -11 -1 -25z m2796 -1 c8 11 14 15 14 9 0 -7 20 -10 53 -8 28 2 60 -1 70
-6 10 -6 17 -6 17 0 0 5 14 11 30 13 17 3 29 1 28 -2 -8 -20 -107 -118 -110
-109 -2 7 -14 5 -33 -5 -62 -32 -201 -94 -240 -107 -22 -8 -65 -26 -95 -41
-30 -16 -60 -28 -68 -28 -7 0 -15 -7 -18 -15 -4 -8 -10 -15 -16 -15 -5 0 -6 6
-2 13 7 12 -45 -30 -57 -47 -4 -5 -11 -6 -17 -2 -6 3 -13 2 -16 -3 -6 -10 49
-33 57 -24 3 2 31 6 64 9 52 3 119 14 193 29 14 3 32 6 40 7 8 0 22 6 30 13
24 19 44 29 38 19 -51 -97 -214 -360 -216 -350 -2 10 -12 12 -35 6 -18 -4 -43
-3 -55 1 -17 6 -22 5 -22 -8 0 -12 -3 -13 -15 -3 -8 7 -12 16 -9 21 10 17 -10
9 -33 -13 -22 -20 -23 -21 -23 -2 0 14 -3 15 -8 6 -5 -7 -16 -10 -24 -7 -8 3
-22 0 -29 -7 -8 -8 -32 -14 -55 -14 -23 -1 -46 -4 -52 -8 -7 -4 -20 -2 -31 3
-22 12 -77 7 -96 -9 -7 -6 -18 -9 -23 -8 -6 2 -18 -6 -27 -17 -9 -11 -14 -15
-11 -9 4 8 -14 11 -59 10 -36 -1 -65 2 -65 7 0 5 -6 5 -13 -1 -7 -6 -28 -13
-47 -15 -19 -2 -42 -7 -50 -11 -8 -3 -25 -7 -37 -9 -12 -2 -25 -6 -29 -10 -3
-3 -13 0 -20 8 -14 14 -49 10 -71 -8 -9 -6 -13 -6 -13 1 0 10 -26 7 -60 -5 -8
-3 -25 -7 -38 -8 -12 -1 -28 -10 -36 -20 -9 -13 -20 -16 -43 -11 l-30 7 46 49
c46 49 123 115 261 225 41 33 77 62 80 65 3 3 39 30 80 61 306 229 520 359
590 359 11 0 20 4 20 9 0 8 71 5 98 -4 6 -2 12 0 12 4 0 5 26 8 58 7 79 -4
133 3 126 18 -3 6 2 2 11 -9 16 -20 16 -20 31 -1z m2073 -229 c26 -44 21 -57
-32 -79 -23 -10 -67 -31 -97 -46 -99 -49 -116 -47 -150 19 -16 31 -9 37 105
95 112 57 145 59 174 11z m-3320 -129 c14 -62 4 -93 -37 -119 -15 -9 -52 -40
-82 -67 -74 -69 -87 -75 -100 -51 -20 39 -24 107 -6 133 28 41 170 158 192
158 17 0 23 -10 33 -54z m-2634 -17 c4 -11 13 -15 24 -12 10 3 22 0 25 -5 3
-6 15 -8 26 -5 13 4 27 -1 36 -13 14 -17 15 -17 10 -1 -4 13 1 17 22 18 15 1
31 1 36 0 4 -1 14 3 20 8 9 7 19 6 33 -4 12 -8 28 -12 36 -9 20 7 29 -22 11
-36 -11 -10 -14 -10 -14 1 0 9 -7 5 -18 -9 -10 -13 -29 -24 -42 -24 -14 -1
-31 -6 -38 -12 -10 -7 -16 -5 -23 5 -6 9 -12 10 -16 4 -5 -6 -33 -17 -63 -24
-30 -7 -65 -20 -78 -28 -17 -11 -34 -12 -73 -5 -40 8 -53 6 -65 -5 -8 -8 -14
-10 -14 -4 0 6 -9 11 -20 11 -11 0 -20 -5 -20 -11 0 -8 -5 -7 -16 2 -13 10
-17 10 -24 -1 -15 -24 -81 -38 -110 -23 -17 9 -26 9 -31 1 -4 -6 -11 -4 -18 8
-6 11 -11 14 -11 8 0 -15 -50 -25 -50 -10 0 6 -6 4 -13 -5 -17 -22 -135 -40
-162 -25 -11 6 -22 13 -25 16 -3 3 -32 6 -65 6 -33 1 -52 0 -42 -3 9 -2 17 -8
17 -12 0 -4 -8 -7 -17 -8 -24 -1 -95 -13 -111 -18 -7 -3 -15 2 -18 9 -3 8 -12
17 -19 20 -9 3 -12 0 -8 -10 7 -19 -11 -18 -27 1 -7 9 -19 14 -26 11 -7 -3
-16 -1 -19 4 -10 16 -28 11 -21 -5 3 -8 1 -15 -4 -15 -6 0 -10 4 -10 9 0 6
-12 6 -31 1 -18 -5 -36 -7 -40 -4 -5 3 -9 0 -9 -5 0 -6 -7 -11 -15 -11 -8 0
-15 4 -15 9 0 5 -16 12 -35 15 -19 4 -35 12 -35 17 0 6 -8 8 -17 5 -28 -8 -51
16 -48 48 5 40 14 44 36 17 10 -13 19 -18 19 -11 0 20 51 62 67 55 9 -3 22 0
29 6 11 9 14 8 14 -5 0 -9 7 -16 15 -16 9 0 28 -8 42 -17 15 -10 24 -12 20 -5
-10 16 15 16 31 0 9 -9 15 -8 27 8 10 13 14 15 15 5 0 -11 4 -11 19 3 23 21
131 25 131 5 0 -6 9 -8 21 -4 16 5 19 4 14 -6 -6 -9 -4 -11 8 -6 9 3 17 1 19
-5 3 -7 9 -8 19 -3 8 5 21 8 31 7 9 -2 19 2 23 8 3 5 15 10 26 10 10 0 19 7
19 15 0 8 5 15 10 15 6 0 10 -6 10 -12 0 -9 3 -9 8 -2 13 19 106 0 96 -20 -3
-6 1 -3 9 7 10 12 17 14 22 8 9 -16 61 -13 79 4 8 8 29 18 45 21 17 4 29 10
26 14 -8 13 64 9 78 -3 14 -14 57 -18 57 -5 0 4 13 6 30 4 17 -2 27 1 24 6 -4
6 1 8 12 5 12 -4 30 3 48 17 32 27 74 29 81 5z m-2345 -159 c9 -6 17 -5 21 2
4 7 14 8 25 3 11 -4 30 -7 44 -7 14 1 19 -1 11 -5 -8 -3 -27 -19 -42 -34 -16
-16 -36 -29 -46 -29 -14 0 -15 -2 -5 -9 11 -6 7 -13 -16 -30 -32 -23 -47 -27
-37 -11 3 6 -1 10 -9 10 -9 0 -16 -7 -16 -15 0 -8 -6 -15 -14 -15 -7 0 -19 -7
-26 -15 -7 -8 -16 -13 -20 -10 -5 3 -22 -6 -39 -21 -17 -14 -35 -23 -41 -19
-6 4 -21 8 -34 11 -18 3 -25 -1 -30 -19 -5 -19 -8 -20 -17 -7 -6 8 -12 11 -15
5 -2 -5 -9 -17 -14 -25 -9 -13 -11 -13 -19 -1 -8 12 -12 12 -25 2 -9 -8 -16
-20 -16 -27 0 -17 -17 -19 -22 -3 -2 7 -12 7 -31 -2 -24 -11 -29 -10 -43 7
-15 18 -15 18 -11 -3 5 -21 -2 -26 -29 -22 -4 0 -11 -5 -15 -13 -8 -11 -10
-11 -18 0 -6 11 -9 10 -15 -3 -4 -12 -12 -14 -28 -10 -15 5 -26 2 -37 -12 -18
-22 -71 -47 -71 -34 0 10 -51 5 -59 -6 -3 -4 -28 -8 -56 -8 -27 0 -63 -6 -80
-14 -41 -20 -58 -22 -67 -8 -5 8 -8 8 -8 1 0 -10 -53 -22 -132 -29 -14 -2 -31
-6 -37 -10 -6 -3 -11 -1 -11 4 0 16 -16 13 -35 -5 -12 -12 -28 -15 -67 -12
-50 5 -72 21 -63 46 3 6 8 20 12 30 7 16 6 16 -11 0 -18 -19 -36 -24 -36 -10
0 4 -16 7 -35 8 -19 0 -35 -4 -35 -9 0 -5 -6 -4 -14 2 -14 12 -46 5 -46 -10 0
-5 -9 -9 -20 -9 -11 0 -20 -4 -20 -9 0 -14 -54 1 -78 22 -27 25 -13 38 36 32
18 -2 31 -1 28 3 -2 4 4 8 15 8 10 0 19 -4 19 -8 0 -14 76 5 93 24 15 17 17
18 17 4 0 -10 5 -14 11 -11 6 4 36 9 67 11 31 2 82 9 112 15 30 6 59 10 64 9
5 -1 14 6 19 15 8 14 11 15 18 4 7 -11 9 -9 9 6 0 15 2 17 9 7 4 -8 17 -12 27
-11 11 2 25 0 32 -4 8 -5 12 -2 12 8 0 12 6 15 20 10 11 -3 20 -2 20 3 0 6 17
9 37 7 26 -2 46 4 62 16 19 15 26 17 33 7 6 -9 10 -10 16 -2 10 16 47 23 64
13 10 -6 20 -4 28 6 7 8 23 15 36 15 13 0 24 4 24 9 0 4 14 7 30 5 17 -2 30 0
30 5 0 9 66 24 114 26 15 0 34 8 41 18 8 11 26 17 52 17 26 0 50 8 67 21 23
18 29 19 43 7 14 -11 16 -11 9 1 -6 10 -4 12 11 7 12 -4 25 -1 33 9 7 8 19 15
26 15 8 0 14 4 14 10 0 5 7 7 15 4 8 -4 15 -12 15 -20 0 -8 5 -14 10 -14 6 0
10 11 10 25 0 16 6 25 15 25 8 0 15 5 15 10 0 6 7 10 15 10 9 0 12 -6 9 -15
-10 -25 22 -17 40 10 17 27 32 31 56 15z m10103 -155 c-1 -45 -2 -206 -1 -232
0 -10 5 -24 11 -30 7 -9 5 -13 -7 -13 -11 0 -16 9 -16 29 0 34 -15 47 -48 42
-13 -1 -25 4 -28 13 -10 25 -100 22 -114 -4 -6 -11 -17 -20 -24 -20 -8 0 -19
-6 -25 -14 -22 -27 -107 11 -98 45 2 8 2 12 0 9 -1 -3 -26 -3 -54 -1 -45 3
-51 1 -46 -13 8 -20 -12 -56 -30 -56 -7 0 -13 -4 -13 -10 0 -11 -59 -14 -84
-4 -9 3 -16 17 -16 29 0 21 -4 23 -39 22 -21 -1 -37 -6 -34 -10 3 -5 -4 -15
-16 -23 -12 -9 -19 -19 -16 -24 3 -5 1 -11 -5 -15 -5 -3 -10 0 -10 7 0 7 -7 3
-15 -10 -13 -17 -24 -21 -55 -19 -22 1 -45 10 -52 19 -16 19 -56 30 -64 17 -3
-5 -16 -9 -30 -9 -13 0 -24 -6 -24 -13 0 -39 -128 -62 -138 -24 -4 16 -12 18
-53 14 -52 -6 -69 -12 -69 -28 0 -6 5 -7 10 -4 6 3 10 1 10 -4 0 -6 -9 -11
-20 -11 -12 0 -32 -7 -45 -16 -22 -14 -27 -14 -59 1 -24 12 -36 24 -37 39 0
11 -3 15 -6 9 -2 -7 -12 -13 -21 -13 -14 0 -15 2 -2 10 8 5 11 12 7 16 -3 4
-14 1 -22 -6 -12 -10 -21 -10 -41 -1 -19 8 -23 8 -18 0 5 -8 -3 -10 -25 -7
-17 2 -31 1 -31 -4 0 -7 15 -12 33 -9 10 2 8 -11 -8 -39 -7 -14 -17 -24 -22
-24 -4 1 -14 -1 -21 -3 -7 -3 -24 -3 -37 -1 -14 3 -25 0 -26 -6 0 -7 -3 -6 -6
2 -2 6 -11 12 -19 12 -9 0 -12 5 -9 10 3 6 -1 10 -9 10 -9 0 -15 3 -15 8 3 18
-2 32 -11 32 -5 0 -10 -9 -10 -19 0 -15 -5 -18 -22 -13 -14 3 -19 1 -14 -6 5
-8 2 -10 -8 -6 -10 4 -16 1 -16 -9 0 -9 -9 -19 -20 -22 -11 -4 -18 -10 -16
-14 3 -4 0 -8 -7 -8 -7 0 -31 -3 -54 -7 -38 -7 -43 -5 -44 11 0 10 -3 13 -6 6
-7 -18 -30 -16 -37 2 -6 17 -42 20 -51 5 -12 -20 -87 -61 -101 -56 -7 3 -16 1
-19 -4 -7 -12 -61 5 -81 25 -15 15 -18 15 -37 -2 -11 -10 -17 -12 -13 -5 14
23 -43 8 -60 -16 -8 -12 -22 -22 -30 -22 -8 0 -14 -4 -14 -10 0 -6 -18 -7 -42
-4 -24 3 -51 5 -61 5 -10 0 -16 6 -14 12 5 14 -22 36 -44 37 -9 0 -22 -6 -28
-14 -13 -15 -51 -10 -51 7 0 6 -3 7 -6 4 -4 -4 -1 -14 6 -22 11 -14 10 -20
-11 -41 -34 -33 -94 -38 -121 -10 -10 12 -25 21 -31 21 -7 0 -12 5 -12 12 0 6
-3 15 -7 19 -5 4 -8 -1 -8 -12 0 -14 -3 -15 -8 -6 -5 7 -16 10 -25 6 -9 -3
-14 -11 -11 -16 4 -6 1 -9 -7 -6 -15 5 -39 -14 -39 -31 0 -13 -48 -38 -84 -45
-14 -3 -26 -1 -26 4 0 5 -7 7 -15 4 -34 -13 -11 18 63 85 42 39 80 71 83 71 3
0 29 23 58 51 57 55 109 82 155 81 16 0 46 6 65 14 21 9 78 17 136 19 55 2
114 9 130 15 35 15 157 21 149 9 -9 -14 3 -10 20 7 9 8 16 12 16 7 0 -5 11
-10 25 -11 14 -1 25 2 25 7 0 14 101 30 179 27 48 -2 84 2 102 11 15 8 62 14
106 15 43 1 83 5 89 10 7 5 14 2 18 -9 6 -15 8 -15 16 -3 5 8 14 16 20 16 5 1
11 2 13 4 17 14 115 14 132 0 13 -11 15 -10 9 4 -4 12 0 16 15 16 12 0 21 -5
21 -12 0 -6 9 -3 20 7 18 16 20 16 14 2 -5 -15 -4 -15 28 0 41 21 136 33 142
19 3 -8 7 -7 13 1 4 6 26 10 48 9 22 -1 53 5 69 13 19 9 59 14 110 14 45 0 86
3 91 7 6 4 30 11 55 16 65 11 80 12 80 3 0 -11 64 -6 73 6 6 7 10 6 13 -2 4
-9 16 -6 41 8 24 14 50 19 79 18 24 -2 46 0 50 4 4 3 16 1 27 -4 11 -7 22 -7
26 -2 3 5 19 10 34 11 16 1 34 5 40 9 7 5 56 8 110 9 78 0 101 3 115 17 28 29
47 17 45 -28z m-7205 -158 c8 -6 12 -21 9 -34 -2 -12 0 -24 6 -26 13 -4 0 -57
-13 -57 -6 0 -8 11 -4 23 5 21 2 24 -24 25 -29 1 -30 0 -24 -41 5 -41 5 -42
-15 -24 -23 20 -50 22 -55 5 -8 -23 -37 1 -47 39 -17 62 -14 92 12 103 27 12
137 3 155 -13z m-480 -39 c7 -7 12 -17 12 -24 0 -16 -41 -26 -56 -13 -9 7 -9
-2 -3 -37 10 -53 0 -74 -36 -74 -12 0 -25 -3 -29 -7 -3 -4 -15 -7 -26 -8 -15
-1 -23 8 -30 34 -29 101 -24 124 30 134 51 9 126 7 138 -5z m-4594 -48 c6 0
18 6 26 13 8 6 6 2 -4 -11 -26 -30 -14 -39 15 -10 23 22 65 35 53 17 -3 -5 -1
-9 5 -9 5 0 13 5 17 11 5 8 10 6 16 -5 11 -20 22 -20 43 0 9 9 19 14 22 10 3
-3 12 -1 20 5 9 9 13 8 13 0 0 -8 28 -11 93 -9 76 3 92 0 92 -12 0 -8 -10 -19
-23 -25 -16 -7 -24 -21 -28 -47 -6 -37 -7 -37 -34 -23 -16 8 -30 20 -33 27 -3
7 -6 3 -6 -9 -1 -26 -21 -32 -21 -7 0 14 -3 14 -16 3 -13 -10 -17 -10 -24 0
-5 8 -10 9 -14 3 -3 -6 -15 -8 -26 -5 -11 3 -27 0 -34 -6 -11 -9 -24 -10 -53
-1 -21 6 -60 14 -88 17 -27 3 -55 9 -62 15 -8 7 -10 3 -6 -14 6 -23 6 -23 -15
2 -17 20 -23 22 -31 11 -12 -18 -45 -6 -65 24 -15 22 -14 24 4 30 22 7 96 17
123 17 9 -1 18 5 18 11 1 7 3 4 6 -5 2 -10 10 -18 17 -18z m4104 -22 c19 -19
14 -28 -14 -28 -24 0 -25 -3 -23 -40 2 -24 -2 -45 -10 -52 -8 -8 -11 -8 -8 -2
4 7 0 14 -8 18 -8 3 -15 2 -15 -2 0 -4 -8 -8 -17 -9 -10 -1 -30 -5 -44 -8 -24
-6 -28 -3 -39 29 -17 52 3 80 67 94 68 14 97 14 111 0z m3896 -119 c-19 -63
-46 -136 -59 -164 -13 -27 -27 -72 -30 -100 -7 -59 -24 -115 -33 -115 -4 0
-14 6 -24 13 -9 7 -32 12 -52 12 -22 -1 -37 4 -41 13 -4 11 -8 12 -20 2 -8 -6
-18 -9 -24 -6 -5 3 -7 -2 -4 -13 3 -10 0 -22 -5 -25 -6 -4 -15 23 -22 66 -7
40 -23 99 -37 132 -24 58 -25 77 -1 59 14 -10 27 -11 43 -2 6 3 28 7 50 8 22
2 48 7 58 13 10 5 44 8 76 7 32 -1 62 1 68 4 7 4 19 31 29 60 29 91 56 159 60
154 2 -2 -12 -55 -32 -118z m1296 52 c16 -30 14 -35 -49 -97 -100 -100 -131
-127 -137 -121 -13 13 -31 81 -26 100 12 46 134 137 184 137 10 0 22 -9 28
-19z m5580 -211 c0 -5 6 -10 13 -10 7 0 28 -11 47 -25 19 -14 40 -25 47 -25 8
0 35 -20 60 -45 25 -25 52 -44 59 -41 6 2 22 -7 35 -20 13 -14 28 -23 34 -20
7 2 18 -5 26 -16 8 -11 19 -26 26 -33 17 -18 69 -178 78 -239 5 -27 16 -64 26
-81 20 -33 150 -145 169 -145 8 0 10 13 6 43 -3 23 -6 52 -6 65 0 50 -47 117
-127 182 -43 35 -79 64 -81 65 -1 1 -7 28 -14 59 -9 48 -9 59 3 66 8 5 19 5
26 -1 8 -7 18 -7 30 0 15 8 19 6 20 -11 2 -16 -1 -17 -13 -8 -10 9 -14 9 -14
1 0 -6 11 -13 25 -17 14 -3 25 -10 25 -15 0 -5 5 -9 11 -9 5 0 7 6 3 13 -4 7
-3 9 2 4 5 -5 8 -11 6 -13 -6 -10 30 -64 43 -64 8 0 15 -8 15 -17 0 -15 -2
-16 -10 -3 -8 13 -10 13 -10 -2 0 -9 8 -23 18 -30 10 -7 22 -25 25 -40 4 -15
13 -33 20 -40 7 -7 25 -44 41 -83 15 -38 32 -78 37 -88 5 -10 7 -22 4 -27 -4
-6 2 -10 12 -11 10 0 13 -3 6 -6 -10 -3 -9 -8 2 -20 8 -8 13 -18 10 -23 -3 -5
-1 -11 4 -14 10 -7 33 -135 51 -291 18 -145 26 -535 11 -535 -7 0 -11 30 -12
88 0 48 0 123 -1 167 0 45 -5 83 -11 87 -8 5 -8 13 0 30 8 18 7 30 -2 49 -8
13 -11 35 -9 49 5 20 3 22 -5 10 -7 -9 -11 -10 -11 -3 0 6 5 15 10 18 15 9 12
25 -5 25 -18 0 -19 12 -3 28 9 9 8 12 -5 13 -25 2 -30 4 -54 17 -21 12 -22 11
-12 -18 6 -17 22 -39 35 -49 17 -13 21 -22 13 -26 -6 -4 -15 -1 -20 6 -5 9 -6
-1 -2 -23 4 -25 2 -38 -6 -38 -6 0 -11 8 -11 18 -1 39 -31 97 -62 121 -18 14
-51 43 -74 63 -23 21 -44 34 -48 30 -5 -4 -7 0 -6 8 5 32 -1 50 -15 50 -18 0
-19 -12 -3 -28 10 -10 10 -15 -2 -22 -13 -9 -13 -10 0 -10 12 0 16 -17 18 -83
3 -110 13 -134 75 -192 92 -88 94 -90 113 -74 15 12 16 11 9 -11 -4 -14 -12
-28 -17 -31 -6 -4 -6 -9 1 -13 13 -8 5 -69 -10 -75 -6 -1 -2 -9 7 -16 16 -11
15 -12 -9 -12 -23 0 -26 3 -25 33 1 19 6 34 12 34 6 0 2 7 -8 15 -11 9 -14 15
-7 15 19 0 9 41 -14 56 -19 12 -20 11 -22 -19 -4 -75 -13 -110 -30 -122 -17
-13 -16 -14 4 -8 21 5 22 3 18 -38 -2 -23 0 -51 6 -61 15 -28 -2 -21 -49 22
-41 37 -42 39 -23 50 24 13 28 55 6 64 -8 3 -15 17 -15 32 0 19 4 25 15 20 8
-3 15 -1 15 4 0 6 -6 10 -13 10 -10 0 -13 15 -13 54 1 30 4 52 9 49 16 -10 5
18 -23 60 -20 29 -30 57 -30 81 0 20 -4 36 -8 36 -4 0 -8 -12 -7 -27 0 -16 -3
-30 -6 -33 -4 -3 -2 -21 5 -40 12 -37 10 -70 -5 -70 -5 0 -9 17 -9 38 0 21 -7
48 -16 60 -8 12 -12 22 -7 22 15 0 13 67 -2 80 -7 6 -11 18 -8 26 3 8 0 14 -5
14 -6 0 -10 -18 -9 -40 1 -22 5 -40 10 -40 4 0 5 -5 2 -10 -15 -24 -35 13 -35
61 0 28 -5 49 -11 49 -5 0 -7 -5 -4 -10 4 -6 1 -17 -5 -25 -7 -8 -9 -22 -6
-31 8 -21 -2 -56 -14 -49 -5 3 -7 12 -4 20 3 7 0 23 -6 36 -10 18 -9 24 4 31
25 14 19 28 -11 29 -28 0 -28 1 -5 11 25 12 31 31 6 21 -12 -4 -15 -1 -12 13
2 10 10 19 18 19 9 0 16 11 17 25 1 14 0 19 -3 12 -5 -10 -8 -10 -18 1 -6 8
-30 17 -53 21 -35 5 -41 4 -37 -9 4 -8 1 -15 -6 -15 -6 0 -8 -4 -5 -10 8 -13
-5 -13 -25 0 -13 8 -12 10 3 10 28 0 20 17 -14 29 -22 8 -36 8 -45 1 -8 -8
-14 -8 -19 0 -4 6 8 17 27 25 32 14 33 14 6 15 -15 0 -29 -4 -32 -9 -5 -8 -15
-8 -46 -1 -3 0 3 7 13 15 11 7 26 11 35 8 15 -4 15 -3 2 6 -12 9 -13 11 -1 11
8 0 12 3 8 6 -3 3 -20 -1 -38 -10 -25 -12 -35 -13 -46 -4 -27 22 -34 46 -18
62 11 10 12 17 4 22 -8 4 -7 9 2 16 10 6 7 7 -8 3 -17 -5 -23 -2 -23 9 0 8 8
16 18 19 9 2 0 4 -20 3 -34 0 -36 -1 -23 -16 17 -19 11 -30 -17 -30 -14 0 -18
8 -18 36 0 21 4 33 10 29 6 -3 10 -2 10 4 0 5 -6 11 -12 14 -10 3 -10 7 1 20
12 15 11 17 -4 17 -11 0 -15 5 -11 15 3 8 1 15 -3 15 -5 0 -7 9 -4 20 5 19 6
20 20 3 16 -20 6 4 -11 26 -15 19 -17 171 -2 171 6 0 5 4 -3 9 -12 8 -13 15
-3 35 6 14 8 27 4 30 -5 3 -7 20 -5 38 2 18 5 47 7 63 6 58 19 110 30 117 15
11 26 10 26 -2z m-2675 -291 c4 -6 8 -54 10 -107 1 -53 8 -110 14 -127 7 -16
12 -32 13 -35 0 -3 4 -10 9 -16 6 -8 2 -13 -14 -16 -34 -7 -47 1 -47 28 0 14
-4 23 -10 19 -5 -3 -31 -6 -57 -6 -57 0 -103 -16 -103 -35 0 -11 -16 -13 -82
-9 -44 2 -82 6 -84 8 -2 1 8 16 21 31 26 30 46 33 170 23 39 -4 60 1 97 20 47
25 66 55 30 48 -10 -2 -52 -6 -93 -10 -40 -4 -76 -8 -80 -10 -5 -4 -25 -8 -96
-20 -16 -2 -93 -13 -173 -24 -191 -27 -404 -60 -460 -71 -25 -5 -71 -12 -102
-15 -32 -3 -68 -9 -80 -13 -13 -5 -39 -8 -58 -7 -19 1 -48 -2 -65 -7 -16 -5
-55 -11 -85 -13 -81 -6 -124 -15 -132 -28 -5 -7 -8 -8 -8 -2 0 7 -34 7 -107
-1 -58 -7 -115 -11 -125 -9 -10 2 -18 0 -18 -5 0 -5 -8 -9 -17 -8 -10 0 -40
-3 -66 -6 -32 -4 -46 -2 -41 5 3 6 -8 4 -24 -5 -41 -21 -42 -21 -38 12 3 25 0
28 -21 24 -12 -2 -23 -9 -23 -14 0 -5 5 -6 10 -3 11 7 26 -22 16 -32 -6 -6
-59 -15 -178 -29 -38 -4 -48 -3 -48 9 0 17 18 33 45 40 11 2 1 5 -23 6 -31 1
-41 -2 -36 -11 5 -8 2 -9 -9 -5 -11 4 -17 1 -17 -8 0 -8 -4 -15 -9 -15 -5 0
-8 -8 -7 -17 1 -15 -7 -18 -46 -17 -27 0 -48 -3 -48 -8 0 -5 -17 -8 -37 -7
-21 1 -72 -5 -113 -14 -72 -15 -302 -50 -405 -62 -27 -3 -57 -8 -65 -10 -22
-6 -68 -14 -125 -20 -27 -3 -61 -8 -75 -10 -14 -3 -45 -7 -70 -10 -25 -3 -52
-7 -60 -10 -8 -2 -37 -7 -65 -9 -70 -7 -191 -25 -250 -37 -27 -5 -57 -10 -65
-11 -8 0 -21 -5 -27 -11 -21 -16 -15 10 12 53 14 22 25 42 25 45 0 4 18 33 41
66 35 52 72 81 97 78 4 -1 12 0 17 1 6 2 24 4 40 6 17 1 66 7 110 14 44 6 91
13 105 14 66 8 195 28 200 31 3 2 36 5 73 7 37 1 67 6 67 11 0 4 3 6 8 4 4 -3
36 0 72 5 110 15 212 29 280 38 36 5 103 13 150 20 47 6 97 12 112 13 16 1 28
6 28 11 0 4 15 6 33 3 17 -2 41 -1 52 3 11 4 48 10 81 14 34 3 68 8 75 11 8 2
41 7 74 10 90 8 250 30 250 36 0 1 23 2 50 3 28 1 55 5 60 8 6 3 33 8 60 12
28 3 111 12 185 21 74 9 152 18 173 20 22 2 52 7 68 10 16 4 44 8 62 10 17 2
79 11 137 19 58 9 123 18 145 21 22 3 51 8 65 10 14 2 52 7 85 10 33 3 76 10
95 15 19 5 64 12 100 15 105 10 134 14 160 20 14 3 47 8 74 10 26 2 51 6 54
10 10 9 71 5 77 -6z m-437 -293 c6 -3 12 -1 14 6 3 8 6 9 11 1 4 -5 -11 -18
-32 -29 -22 -10 -37 -22 -35 -25 6 -11 -69 -17 -94 -8 -12 5 -50 6 -85 3 -47
-5 -69 -13 -91 -33 -16 -14 -25 -20 -21 -12 6 10 4 12 -5 6 -8 -5 -62 -8 -121
-8 -99 1 -110 -1 -144 -24 -33 -22 -44 -25 -94 -19 -31 4 -66 7 -78 8 -14 0
-20 4 -16 11 4 6 0 8 -10 4 -10 -3 -17 -3 -17 1 0 6 47 30 70 36 3 1 10 4 15
7 6 3 47 5 93 5 45 -1 82 1 82 5 0 3 10 6 23 5 12 -1 40 6 62 15 23 10 68 18
107 18 98 1 157 10 195 30 27 13 47 16 97 10 35 -3 68 -9 74 -13z m-1190 -159
c22 1 32 -3 32 -13 0 -8 -9 -14 -21 -14 -12 0 -23 -8 -26 -19 -5 -21 -69 -34
-119 -25 -58 11 -145 0 -189 -23 -40 -21 -104 -33 -111 -21 -7 11 -134 7 -134
-5 0 -4 -6 -7 -12 -5 -17 3 -59 -11 -78 -26 -8 -6 -31 -11 -50 -10 -19 0 -67
2 -106 2 -55 2 -73 6 -78 18 -4 10 -1 14 6 11 7 -2 34 6 59 19 35 17 65 23
125 25 89 2 177 14 214 31 14 6 48 12 75 14 28 2 86 5 129 8 44 3 82 10 86 15
8 14 109 30 140 22 14 -3 40 -5 58 -4z m-2122 -84 c3 -16 8 -34 10 -42 2 -7
-1 -30 -8 -50 -17 -48 -68 -129 -68 -108 0 9 -7 17 -15 17 -8 0 -15 -8 -15
-17 -1 -17 -1 -17 -11 0 -8 14 -7 31 6 65 22 60 77 162 87 162 4 0 10 -12 14
-27z m-582 -137 c26 -64 36 -105 36 -144 0 -33 -4 -51 -10 -47 -5 3 -10 19
-10 34 0 16 -7 34 -15 41 -23 19 -20 -24 6 -76 11 -24 19 -56 17 -71 -3 -27
-4 -26 -32 21 -21 36 -27 57 -23 81 3 18 2 37 -2 41 -9 11 -28 91 -37 156 -5
40 -3 47 13 50 10 2 19 4 20 4 0 -1 17 -41 37 -90z m1417 39 c25 -8 24 -25 -5
-53 -25 -23 -33 -24 -171 -20 -67 2 -114 -8 -136 -28 -24 -22 -101 -36 -111
-21 -6 9 -8 8 -8 -2 0 -11 -3 -11 -15 -1 -13 10 -33 11 -101 1 -96 -13 -116
-19 -109 -32 7 -11 -31 -19 -75 -16 -19 2 -45 -1 -58 -5 -21 -7 -23 -6 -16 14
3 13 15 35 25 49 16 23 25 26 86 27 76 2 178 19 205 33 10 5 64 12 120 14 57
3 117 8 133 12 17 4 35 6 41 5 6 -1 16 4 22 11 12 14 139 23 173 12z m71 -427
c52 -27 66 -39 60 -56 -5 -16 -29 -16 -35 1 -4 8 -6 7 -6 -3 -1 -10 -11 -15
-33 -14 -18 0 -37 -2 -42 -5 -19 -9 -61 -7 -69 3 -6 8 -10 7 -13 -1 -6 -13
-35 -6 -46 10 -11 17 3 37 27 37 13 0 25 4 27 10 2 5 16 11 31 12 16 1 33 8
39 15 13 16 10 17 60 -9z m2744 -50 c4 -6 9 -27 11 -47 5 -54 21 -86 54 -110
16 -12 27 -27 23 -33 -4 -5 -2 -13 4 -17 8 -5 5 -18 -9 -41 -13 -20 -23 -29
-28 -22 -3 6 -18 15 -33 21 -33 12 -40 -7 -23 -59 11 -34 52 -63 100 -72 11
-1 26 -9 34 -16 12 -12 12 -15 0 -23 -13 -8 -6 -13 14 -10 4 0 7 -7 7 -16 0
-10 3 -29 7 -43 6 -24 6 -24 -11 -7 -20 20 -30 22 -20 5 40 -69 131 -164 255
-271 52 -44 310 -217 391 -262 32 -17 19 -23 -21 -9 -111 38 -382 229 -541
381 -36 35 -68 63 -72 63 -5 0 -8 7 -8 15 0 8 -4 15 -10 15 -27 0 55 -108 160
-208 66 -63 223 -185 300 -232 168 -102 201 -130 121 -99 -121 46 -361 219
-511 370 -83 82 -110 95 -67 31 26 -40 220 -242 232 -242 3 0 18 -12 34 -27
42 -39 78 -65 136 -98 28 -15 52 -32 55 -36 3 -5 34 -26 68 -49 47 -30 69 -39
87 -34 14 3 25 10 25 15 0 5 5 9 10 9 6 0 10 -7 10 -15 0 -9 11 -20 24 -24 13
-5 26 -17 30 -26 5 -14 9 -15 22 -4 19 16 32 0 29 -35 -3 -20 -71 -93 -150
-159 l-31 -25 -54 34 c-30 20 -62 39 -70 45 -12 8 -8 15 23 43 21 19 34 37 28
40 -5 4 -13 1 -18 -6 -4 -7 -18 -21 -30 -32 -21 -17 -24 -18 -55 -2 -45 22
-68 41 -68 56 0 7 -6 10 -14 7 -8 -3 -20 1 -26 9 -16 18 -44 19 -37 0 19 -48
18 -82 -2 -100 -12 -11 -21 -16 -21 -11 0 4 8 14 18 21 14 10 15 15 5 25 -7 7
-13 32 -13 54 0 27 -6 47 -17 57 -10 8 -47 44 -83 79 -36 35 -68 64 -71 64 -6
0 -76 79 -122 135 l-27 35 6 -30 c4 -16 13 -35 21 -42 10 -7 12 -20 8 -35 -5
-18 -4 -20 4 -8 6 8 11 12 11 8 0 -18 2 -24 13 -37 7 -8 11 -22 9 -32 -2 -9 2
-20 8 -24 5 -3 10 -12 10 -18 0 -7 -16 5 -35 26 -18 20 -36 37 -39 37 -3 0 9
-24 27 -52 43 -70 255 -281 322 -320 7 -5 29 -1 49 7 32 14 36 14 36 0 0 -9
-4 -14 -9 -11 -17 11 -3 -48 15 -61 25 -18 30 -8 10 22 -9 14 -12 25 -7 25 5
0 12 -8 15 -18 4 -10 20 -32 36 -49 l30 -31 -33 -28 c-18 -16 -66 -51 -106
-79 -40 -27 -98 -69 -129 -91 -103 -75 -447 -252 -581 -299 -36 -12 -99 -35
-139 -49 -152 -55 -378 -110 -585 -141 -200 -31 -580 -44 -752 -26 -286 31
-432 62 -705 151 -168 55 -549 243 -611 302 -8 7 -41 31 -74 53 -33 22 -85 61
-117 88 -31 26 -61 47 -65 47 -8 0 -56 47 -193 188 -102 105 -197 218 -226
270 -15 26 -35 56 -44 67 -9 11 -27 38 -40 60 -61 106 -78 142 -78 167 0 24 3
26 19 17 10 -5 18 -13 17 -17 -3 -15 16 -48 44 -75 15 -15 28 -32 28 -37 0 -6
7 -13 15 -16 8 -4 12 -10 9 -15 -2 -5 18 -39 47 -76 28 -37 53 -73 56 -80 11
-28 28 -12 27 23 -2 25 -11 46 -28 63 -44 43 -154 205 -244 358 -36 62 -32 79
18 81 17 0 45 5 63 11 28 9 139 26 232 36 35 4 131 21 195 36 25 5 118 21 205
34 88 13 185 29 215 35 65 13 163 28 240 37 30 3 60 9 65 13 6 4 35 10 65 14
105 13 255 37 320 51 36 8 115 21 175 30 61 8 153 24 205 35 52 10 115 22 140
25 73 9 203 31 345 59 11 2 52 7 90 11 39 3 79 10 90 15 11 5 83 19 160 30 77
11 151 22 165 25 61 13 182 31 275 41 33 4 67 10 75 14 8 5 40 11 70 14 30 4
69 9 85 12 17 2 55 7 85 10 30 3 64 9 75 14 11 4 54 13 95 20 41 6 82 13 90
15 33 6 49 4 56 -7z m785 -365 c14 -37 6 -120 -13 -140 -19 -19 -43 -12 -97
27 -46 34 -51 54 -20 71 20 10 21 9 16 -10 -8 -34 23 -26 36 10 9 22 17 29 30
25 12 -3 17 1 16 12 -4 42 17 45 32 5z m-4907 -388 c3 -38 11 -101 16 -140 5
-38 19 -153 30 -255 10 -102 26 -250 35 -330 19 -176 35 -270 79 -460 34 -144
73 -412 80 -545 5 -79 -10 -233 -24 -249 -4 -6 -10 -29 -12 -50 -2 -22 -9 -41
-16 -44 -7 -2 -12 0 -11 5 3 17 -1 36 -7 30 -3 -3 -8 -34 -11 -69 -4 -64 -23
-108 -23 -52 0 26 -28 221 -36 252 -10 35 -33 -11 -56 -108 -9 -37 -7 -64 11
-150 12 -58 22 -111 24 -119 1 -8 -4 -16 -11 -18 -8 -3 -10 1 -6 12 4 10 2 15
-7 13 -10 -2 -15 9 -17 35 -2 26 -7 35 -15 30 -9 -5 -9 -3 -2 8 6 8 8 31 4 54
-3 22 -7 30 -8 18 0 -13 -3 -23 -5 -23 -2 0 -11 -3 -19 -6 -24 -9 -28 26 -8
65 23 43 58 143 66 189 4 27 2 32 -15 32 -11 0 -20 5 -20 10 0 6 5 10 10 10
13 0 9 32 -4 42 -6 4 -4 13 3 22 11 14 11 16 -3 16 -10 0 -14 -4 -11 -10 3 -5
-1 -10 -9 -10 -13 0 -13 4 2 30 13 23 14 32 5 38 -7 4 -14 19 -15 32 -2 14 -7
28 -13 32 -6 5 -5 8 3 8 6 0 12 7 12 16 0 14 -3 14 -15 4 -10 -8 -15 -9 -15
-2 0 6 9 16 20 22 11 6 20 15 20 21 0 6 -10 3 -22 -5 -12 -9 -25 -16 -29 -16
-11 0 18 74 30 78 17 6 13 32 -5 32 -13 0 -14 9 -8 58 3 31 9 61 12 66 3 5 7
27 9 50 5 56 11 101 14 101 3 0 6 29 14 130 4 50 8 91 10 93 1 2 -1 18 -5 37
-4 19 -5 37 -2 40 13 12 7 55 -8 56 -10 0 -9 3 4 8 17 7 18 8 3 14 -14 5 -16
17 -12 69 4 59 3 61 -11 38 -16 -28 -16 -37 1 80 10 74 5 392 -10 540 -8 85
-15 171 -15 190 1 58 17 13 24 -65z m169 -114 c9 -8 17 -21 17 -27 0 -6 7 -18
17 -25 20 -17 103 -145 103 -160 0 -8 -6 -7 -17 2 -15 11 -16 11 -5 -1 6 -8
12 -22 12 -31 0 -9 7 -20 16 -23 13 -5 15 -1 10 21 l-7 28 21 -25 c33 -38 71
-126 72 -162 0 -18 5 -39 11 -45 6 -9 6 -13 -3 -13 -7 0 -2 -18 15 -45 14 -25
25 -51 22 -58 -3 -10 -137 215 -137 230 0 3 -15 24 -33 47 -19 23 -40 52 -47
65 -7 14 -23 35 -35 47 -21 21 -24 21 -30 6 -3 -10 0 -21 10 -28 9 -7 17 -23
19 -36 4 -34 25 -68 42 -68 9 0 14 -6 12 -12 -3 -7 10 -34 29 -60 18 -26 33
-50 33 -53 0 -3 16 -28 35 -55 19 -27 35 -52 35 -55 0 -3 17 -32 37 -63 52
-80 113 -195 196 -372 57 -123 64 -143 36 -111 -11 14 -23 37 -26 53 -3 15 -9
25 -14 22 -5 -3 -9 4 -9 16 0 12 -4 19 -8 16 -13 -8 -7 -77 7 -85 6 -4 9 -15
5 -24 -3 -10 -1 -17 5 -17 6 0 11 -17 11 -39 0 -22 4 -42 9 -46 6 -3 10 -13
10 -23 -1 -9 2 -27 6 -40 6 -19 4 -21 -11 -16 -11 3 -15 2 -9 -3 12 -9 35 -59
35 -73 0 -6 -7 -10 -15 -10 -8 0 -15 -7 -15 -16 0 -8 5 -12 10 -9 6 3 10 -3
10 -14 0 -12 5 -21 10 -21 6 0 10 -5 10 -11 0 -5 -5 -7 -10 -4 -6 3 -13 -1
-17 -10 -3 -10 0 -21 8 -26 11 -7 11 -9 -3 -9 -13 0 -18 -8 -18 -29 0 -17 4
-32 9 -35 5 -4 7 2 4 13 -3 10 0 22 6 26 15 9 53 -4 45 -16 -4 -6 -11 -6 -19
1 -21 18 -27 -5 -12 -49 10 -28 11 -43 4 -50 -8 -8 -7 -11 2 -11 7 0 9 -5 6
-10 -4 -6 -3 -10 2 -9 20 3 24 -2 12 -17 -8 -10 -9 -18 -2 -22 11 -8 33 -47
33 -59 -1 -4 -8 4 -16 20 -8 15 -21 27 -29 27 -8 0 -15 5 -15 12 0 6 -3 8 -6
5 -14 -13 131 -176 281 -316 304 -283 688 -506 1115 -647 157 -52 443 -124
492 -124 19 0 43 -7 54 -15 19 -14 19 -14 -2 -15 -24 0 -261 51 -367 79 -412
111 -833 321 -1156 579 -96 76 -306 280 -415 402 -80 89 -59 56 41 -66 157
-193 390 -399 628 -556 176 -116 467 -260 665 -330 159 -55 459 -132 603 -153
20 -3 37 -10 37 -15 0 -14 -22 -12 -135 10 -579 117 -1072 351 -1495 709 -124
105 -294 274 -353 353 -30 40 -64 82 -74 93 -10 11 -33 41 -51 68 -18 26 -35
47 -38 47 -12 0 81 -144 131 -203 8 -9 15 -22 15 -28 0 -5 11 -22 25 -37 78
-83 103 -126 118 -205 8 -42 12 -79 8 -81 -9 -6 -101 105 -121 144 -8 16 -20
30 -26 30 -14 0 -61 73 -114 175 -33 65 -43 95 -49 160 -7 68 -16 95 -60 181
-28 56 -51 112 -51 125 0 13 -6 44 -14 69 -49 151 -80 263 -111 395 -19 83
-40 164 -45 180 l-10 30 4 -35 c9 -75 31 -185 37 -190 6 -5 45 -149 55 -203 2
-15 11 -45 19 -65 17 -43 35 -114 41 -157 2 -16 6 -44 9 -61 2 -17 23 -63 45
-102 29 -50 44 -92 54 -146 7 -42 10 -78 6 -81 -11 -7 -79 146 -106 240 -14
50 -29 92 -35 93 -5 2 -9 13 -9 23 0 11 -4 18 -9 15 -4 -3 -6 -17 -4 -31 3
-14 10 -22 16 -18 6 3 7 1 3 -6 -4 -7 -4 -20 0 -29 4 -9 9 -27 11 -40 2 -12
17 -57 33 -99 16 -42 28 -78 26 -80 -9 -9 -82 165 -130 311 -125 374 -169 704
-147 1094 7 114 15 218 18 232 6 23 7 23 17 6 6 -11 19 -26 29 -35z m-1363
-41 c0 -5 -6 -10 -14 -10 -8 0 -18 -9 -21 -20 -5 -15 -12 -19 -27 -14 -13 4
-28 -2 -46 -18 -15 -14 -47 -35 -72 -47 -25 -13 -54 -31 -66 -42 -11 -11 -24
-16 -27 -12 -4 3 -18 -3 -30 -15 -13 -12 -26 -19 -30 -16 -3 4 -13 -1 -22 -9
-8 -9 -22 -14 -29 -11 -9 3 -17 -3 -21 -15 -3 -12 -15 -21 -25 -21 -10 0 -21
-7 -24 -16 -3 -9 -13 -14 -21 -10 -8 3 -21 -1 -29 -9 -8 -8 -20 -15 -26 -15
-6 0 -15 -11 -20 -25 -8 -20 -14 -24 -33 -20 -17 5 -36 -2 -63 -20 -24 -16
-48 -25 -62 -22 -12 2 -25 0 -28 -4 -3 -5 -13 -9 -22 -9 -12 0 -10 4 8 17 14
9 27 20 30 24 3 3 32 15 65 25 48 15 61 24 63 42 4 23 16 29 27 12 5 -8 12 -7
22 2 9 7 21 13 27 13 10 0 41 18 111 63 11 6 30 16 42 21 11 6 24 14 27 20 4
6 24 18 44 28 20 9 67 36 104 60 37 24 76 43 86 43 11 0 22 9 25 20 4 15 14
20 41 20 20 0 36 -4 36 -10z m-1750 -145 c-9 -11 -9 -15 -1 -15 7 0 9 -5 4
-12 -4 -7 -6 -23 -5 -35 2 -12 -4 -26 -15 -32 -16 -9 -14 -10 10 -11 19 0 26
-4 21 -11 -5 -8 1 -10 19 -7 15 3 28 0 30 -6 3 -8 9 -7 19 2 16 13 31 17 102
28 22 3 44 8 48 10 5 3 8 -1 9 -8 0 -10 2 -10 6 0 16 39 47 -20 58 -110 6 -50
5 -59 -11 -65 -10 -3 -19 -2 -21 3 -2 6 -17 8 -33 6 -21 -3 -30 -10 -30 -23 0
-13 -7 -19 -23 -19 -13 0 -62 -16 -110 -35 -48 -19 -124 -46 -169 -59 -46 -14
-103 -32 -127 -40 -24 -9 -54 -16 -66 -16 -13 0 -25 -6 -28 -13 -5 -14 -127
-53 -207 -67 -67 -12 -446 -107 -515 -130 -97 -32 -190 -45 -219 -32 -20 9
-24 8 -20 -2 4 -10 -20 -18 -93 -30 -223 -37 -281 -47 -343 -61 -36 -9 -89
-18 -119 -21 -48 -5 -53 -4 -47 12 9 24 -2 52 -25 65 -16 8 -28 6 -55 -10 -20
-12 -40 -18 -46 -15 -13 8 -2 -13 20 -38 22 -26 32 -24 -283 -48 -71 -5 -161
-14 -199 -20 -68 -10 -136 -5 -136 10 0 7 20 18 40 22 3 1 13 12 22 24 24 29
107 84 127 83 9 0 11 -3 5 -5 -8 -3 -8 -17 -1 -49 10 -44 20 -55 32 -35 3 6 2
10 -2 10 -5 0 -10 10 -11 23 -1 12 -4 31 -6 42 -4 26 31 61 69 68 17 4 75 9
130 12 55 3 112 8 128 11 20 4 27 2 27 -10 0 -8 5 -18 11 -22 14 -9 5 37 -17
80 -11 24 -12 31 -2 38 21 13 28 9 28 -12 0 -11 4 -20 10 -20 5 0 7 6 4 13 -3
8 2 20 11 27 11 9 15 9 15 1 0 -7 5 -9 10 -6 6 4 8 10 5 15 -3 5 5 12 17 16
13 4 25 10 28 15 9 13 49 -2 44 -16 -3 -7 -1 -16 5 -20 6 -3 11 1 11 11 0 10
3 15 6 11 3 -3 17 -2 30 3 19 8 29 5 44 -10 11 -11 20 -26 20 -34 0 -30 24
-33 120 -15 147 29 205 32 240 14 29 -15 31 -15 40 10 5 14 12 25 15 25 4 0 3
-4 0 -10 -3 -5 3 -10 14 -10 34 0 33 18 -3 75 -20 30 -37 55 -39 55 -3 0 -2
-11 0 -24 4 -21 1 -24 -44 -29 -26 -4 -111 -17 -188 -31 -77 -13 -143 -21
-147 -17 -4 4 2 8 14 8 13 1 24 7 26 13 2 5 10 10 18 10 8 0 14 5 14 10 0 6
-4 10 -10 10 -5 0 -10 7 -10 15 0 8 -5 15 -11 15 -5 0 -7 -4 -4 -10 3 -5 1
-10 -4 -10 -16 0 -13 26 4 40 8 7 22 9 32 6 9 -4 20 -1 25 6 6 10 8 10 8 -1 0
-11 3 -11 17 0 13 11 17 12 21 1 3 -10 8 -10 21 2 10 9 31 17 47 18 16 1 33 4
38 6 20 11 71 9 78 -1 5 -8 8 -6 8 6 0 19 15 23 25 6 5 -7 13 -5 25 6 10 9 23
14 29 11 5 -3 22 -1 38 5 15 6 50 14 77 19 47 7 49 7 60 -21 12 -34 26 -38 26
-8 0 11 -4 18 -9 15 -5 -3 -11 1 -15 9 -8 21 10 28 27 11 11 -11 17 -12 26 -3
13 13 15 -4 2 -19 -15 -15 -25 -134 -12 -134 6 0 16 11 20 24 11 27 34 39 49
24 6 -6 18 -8 27 -4 14 5 10 13 -24 47 -23 23 -41 45 -41 50 0 14 8 11 30 -13
11 -12 20 -17 20 -10 0 6 -4 14 -10 17 -5 3 -10 15 -10 26 0 11 -4 18 -9 14
-5 -3 -13 0 -16 6 -5 6 0 10 11 8 11 -1 35 4 54 13 34 14 126 34 143 30 4 -2
18 4 30 13 12 8 34 15 49 15 14 0 38 4 53 10 63 24 84 18 90 -25 0 -5 7 -9 14
-7 7 1 19 -3 27 -9 11 -9 14 -8 14 4 0 10 12 18 33 22 17 3 46 8 62 11 17 3
39 6 50 5 10 0 25 5 32 10 6 6 17 8 22 5 5 -4 12 -2 16 3 3 6 12 8 20 5 8 -4
18 1 21 10 3 9 11 13 16 10 6 -4 14 -1 18 6 9 15 1 50 -12 50 -5 0 -6 5 -3 10
4 6 10 8 15 5 4 -3 13 1 19 9 7 8 21 12 31 9 12 -3 20 0 20 7 0 7 12 10 33 9
21 -2 31 1 30 9 -3 11 4 13 47 17 9 0 27 8 40 18 13 9 34 17 45 17 11 0 27 5
35 10 21 14 24 12 10 -5z m363 -379 c6 -16 -22 -46 -44 -46 -8 0 -23 -6 -34
-13 -11 -7 -31 -14 -44 -15 -13 0 -31 -7 -40 -15 -9 -8 -38 -18 -65 -22 -50
-7 -56 -9 -114 -39 -17 -10 -37 -14 -43 -10 -13 8 -78 -24 -99 -49 -13 -16
-17 -16 -34 -4 -17 13 -25 11 -65 -9 -25 -13 -59 -26 -76 -28 -28 -3 -44 -8
-117 -37 -15 -6 -34 -9 -42 -6 -7 3 -22 0 -32 -8 -11 -7 -39 -16 -64 -19 -46
-7 -88 -20 -127 -38 -12 -6 -31 -8 -43 -5 -21 5 -72 -15 -102 -40 -32 -28 -77
24 -47 54 7 7 32 9 65 6 41 -4 59 -2 72 9 9 9 33 18 52 22 54 10 63 12 85 20
68 27 81 30 93 28 8 -2 24 3 36 12 13 8 45 18 72 21 27 4 66 16 87 27 21 10
57 19 81 20 35 0 46 5 54 23 9 19 18 22 66 22 38 0 62 5 74 17 10 9 25 16 33
16 18 0 79 22 99 35 25 16 83 34 92 28 5 -3 18 3 28 12 11 10 43 24 72 31 69
16 65 16 71 0z m14 -150 c-7 -18 -84 -52 -105 -48 -8 2 -21 -3 -30 -10 -16
-13 -33 -19 -132 -49 -25 -7 -53 -18 -64 -25 -10 -7 -24 -10 -31 -8 -14 6 -70
-19 -98 -44 -15 -13 -22 -14 -37 -4 -16 10 -28 7 -66 -13 -26 -14 -57 -25 -69
-25 -12 0 -50 -11 -84 -25 -34 -14 -66 -23 -72 -19 -5 3 -20 -1 -33 -9 -12 -9
-45 -19 -72 -23 -27 -4 -74 -15 -104 -25 -30 -10 -58 -15 -63 -12 -5 3 -33 -7
-62 -22 -59 -29 -88 -30 -93 -1 -6 30 13 39 76 37 41 -1 63 3 71 13 6 7 36 17
66 21 30 3 57 11 60 16 4 5 17 9 30 9 13 0 27 5 30 10 3 6 21 10 39 10 17 0
36 4 42 10 5 5 36 16 69 24 33 8 78 22 100 30 22 8 54 15 71 16 21 0 36 7 46
22 12 18 25 23 72 24 37 1 61 7 69 17 11 14 28 19 100 34 15 3 27 9 27 14 0 5
8 9 18 9 10 0 28 7 40 16 12 8 26 12 32 9 5 -3 22 2 37 12 33 22 105 42 117
32 5 -4 6 -15 3 -23z m-1281 -237 c11 -18 -9 -29 -87 -45 -41 -8 -105 -22
-144 -30 -38 -8 -99 -20 -135 -25 -36 -5 -74 -11 -85 -13 -11 -2 -39 -7 -61
-10 -23 -3 -54 -11 -70 -18 -16 -7 -49 -13 -74 -14 -25 -1 -108 -11 -185 -23
-136 -21 -254 -34 -382 -44 -50 -4 -63 -2 -63 9 0 9 10 14 28 12 15 -1 36 2
47 5 29 10 400 59 468 62 36 2 65 9 76 19 14 12 31 15 67 12 27 -3 67 0 89 5
22 6 58 14 80 18 22 4 58 13 80 19 49 13 169 39 210 46 17 3 48 9 70 14 56 13
63 13 71 1z m10812 -46 c59 -4 96 -11 98 -18 5 -13 -32 -83 -52 -100 -7 -5
-14 -19 -16 -29 -8 -48 -59 -43 -63 6 -1 13 -6 22 -11 21 -5 -1 -20 8 -32 20
-47 43 -73 127 -35 113 9 -4 59 -10 111 -13z m-138 -35 c0 -6 11 -26 25 -44
14 -18 25 -35 25 -38 0 -8 -75 6 -78 15 -2 5 -10 2 -18 -6 -22 -21 -8 -38 19
-24 16 9 22 9 25 0 2 -6 11 -11 19 -11 14 0 14 -2 0 -22 -9 -13 -32 -45 -52
-73 -49 -70 -89 -115 -81 -91 4 11 2 22 -4 26 -7 4 -6 20 4 48 8 23 14 42 12
42 -2 0 -21 -21 -41 -46 -30 -37 -35 -48 -24 -55 11 -7 10 -9 -4 -9 -34 0 -31
30 7 64 20 19 36 41 36 50 0 9 15 37 34 63 18 27 43 67 56 90 21 39 40 48 40
21z m-10636 -47 c3 -5 0 -13 -7 -18 -12 -11 -162 -48 -232 -59 -22 -3 -44 -8
-48 -11 -9 -5 -104 -20 -202 -32 -33 -4 -71 -13 -85 -21 -14 -7 -47 -15 -75
-16 -27 -1 -124 -13 -215 -27 -91 -14 -217 -28 -280 -32 -63 -4 -119 -10 -123
-12 -19 -11 -694 -26 -745 -17 -77 15 4 22 242 23 138 1 298 5 356 11 58 5
130 11 160 13 51 4 193 21 400 49 47 7 105 12 130 12 27 1 50 7 56 15 8 10 27
14 60 12 46 -2 158 17 232 41 19 5 57 14 85 19 82 13 148 27 202 43 60 17 82
19 89 7z m-1334 -98 c0 -8 -5 -11 -12 -7 -12 8 -56 7 -113 -1 -73 -11 -455
-18 -455 -8 0 14 2 14 395 31 173 8 185 7 185 -15z m12074 1 c17 -25 17 -27 1
-42 -12 -12 -19 -13 -22 -6 -5 14 -43 6 -43 -8 0 -5 10 -6 21 -3 20 7 21 5 15
-21 -4 -16 -14 -36 -21 -44 -24 -26 -105 -154 -105 -165 0 -5 -10 1 -21 15
-20 24 -20 24 -9 2 7 -13 9 -35 6 -48 -7 -28 -90 -134 -116 -149 -10 -5 -35
-30 -56 -55 -22 -25 -50 -57 -64 -71 -87 -89 -150 -160 -150 -167 0 -12 -126
-132 -138 -132 -5 0 -25 -14 -43 -31 -59 -56 -227 -189 -238 -189 -6 0 -15 -9
-21 -19 -12 -24 -119 -106 -149 -116 -12 -4 -50 -26 -84 -49 -83 -56 -217
-136 -229 -136 -5 0 -17 -9 -26 -19 -16 -19 -147 -91 -164 -91 -5 0 -59 -23
-121 -51 -61 -28 -137 -60 -167 -71 -30 -12 -66 -29 -79 -39 -13 -11 -31 -19
-40 -19 -10 0 -21 -4 -26 -9 -6 -4 -32 -14 -60 -21 -27 -7 -131 -37 -230 -67
-255 -77 -271 -82 -355 -93 -41 -5 -102 -14 -135 -20 -33 -5 -98 -14 -145 -20
-47 -6 -96 -15 -110 -20 -14 -5 -182 -11 -375 -12 -314 -2 -369 0 -530 21 -99
13 -194 22 -211 22 -32 -1 -137 20 -189 38 -27 9 -125 34 -295 76 -104 26
-161 45 -225 75 -33 15 -112 51 -175 79 -63 28 -120 55 -125 59 -6 4 -18 41
-27 82 -9 41 -20 86 -24 99 -7 24 -7 24 22 8 50 -29 226 -107 239 -107 7 0 17
-6 23 -13 6 -7 43 -23 84 -37 98 -33 123 -57 145 -141 9 -38 21 -69 26 -69 5
0 6 8 2 18 -4 9 -13 41 -20 70 -7 30 -18 59 -24 65 -23 23 -9 24 52 5 34 -11
112 -33 172 -49 61 -16 115 -30 120 -32 6 -2 33 -7 60 -11 28 -4 57 -10 66
-12 31 -8 66 -54 79 -100 8 -28 18 -43 25 -40 7 2 61 -2 121 -9 181 -23 185
-23 182 -7 -2 9 -18 16 -38 18 -100 10 -238 26 -257 31 -12 3 -24 16 -28 31
-4 15 -14 35 -22 45 -9 9 -14 19 -12 21 2 2 101 -7 219 -20 118 -13 233 -23
255 -24 22 0 51 -7 63 -16 23 -15 62 -87 62 -111 0 -9 5 -11 12 -7 7 5 28 7
47 5 31 -3 34 -1 22 13 -7 9 -24 16 -36 16 -36 0 -55 10 -55 30 0 9 -9 29 -20
43 -11 14 -20 27 -20 29 0 1 80 3 178 3 97 -1 215 3 262 8 71 7 89 6 112 -8
16 -9 28 -12 28 -6 0 6 -7 11 -15 11 -8 0 -15 4 -15 9 0 5 28 12 63 16 34 4
100 13 147 21 47 8 101 17 120 19 19 2 71 12 116 23 81 19 119 16 136 -11 6
-9 8 -9 8 0 0 7 -7 16 -16 21 -20 11 -10 32 16 32 10 0 78 18 152 41 73 22
140 42 148 43 8 1 24 6 35 11 82 33 140 55 151 55 7 0 14 3 16 8 2 4 55 29
118 56 63 27 134 60 158 72 26 14 42 18 42 11 1 -7 6 -6 13 3 15 20 143 90
162 90 8 0 15 4 15 9 0 5 33 28 73 52 39 24 104 65 144 91 40 26 74 48 77 48
2 0 7 -8 9 -17 4 -14 5 -13 6 4 1 14 25 39 74 75 99 73 319 256 336 279 19 27
31 24 32 -8 1 -25 2 -25 9 7 6 24 28 54 74 97 36 35 66 66 66 69 0 4 29 36 64
73 35 36 88 94 117 128 l53 62 14 -32 c7 -17 20 -40 29 -50 16 -17 16 -20 -1
-52 -24 -43 -12 -65 16 -30 20 25 21 26 42 8 l21 -18 -21 25 c-81 99 -93 152
-46 207 l27 33 65 -10 c125 -20 148 -20 154 -5 3 8 1 17 -4 20 -16 10 -11 25
5 19 8 -4 15 -1 15 5 0 6 -5 11 -12 11 -6 0 -4 7 5 18 10 10 17 23 17 28 1 5
14 25 30 44 17 19 30 38 30 43 0 10 33 56 40 56 3 0 13 -11 24 -25z m-553
-190 c-11 -15 -21 -33 -21 -40 0 -7 -14 -21 -31 -29 -17 -9 -37 -31 -45 -51
-8 -19 -26 -40 -39 -46 -14 -6 -25 -15 -25 -19 0 -10 -139 -149 -149 -149 -4
0 -13 -11 -19 -26 -7 -14 -25 -29 -40 -35 -15 -5 -36 -23 -46 -40 -10 -17 -31
-35 -47 -41 -15 -5 -37 -25 -48 -44 -11 -19 -27 -34 -35 -34 -9 0 -31 -15 -50
-32 -59 -55 -108 -92 -137 -105 -15 -6 -35 -23 -44 -37 -10 -15 -27 -26 -39
-26 -12 0 -35 -13 -51 -30 -16 -16 -37 -30 -47 -30 -10 0 -34 -16 -54 -35 -19
-19 -42 -35 -50 -35 -9 0 -29 -11 -46 -25 -16 -14 -35 -25 -41 -25 -7 0 -32
-14 -57 -30 -25 -16 -51 -30 -59 -30 -7 0 -26 -11 -43 -25 -16 -14 -39 -25
-50 -25 -11 0 -32 -9 -47 -19 -34 -25 -81 -37 -81 -22 0 13 35 36 70 46 14 4
34 15 45 25 11 10 34 22 50 26 17 3 38 14 49 23 18 16 62 41 141 79 22 11 49
29 59 41 11 11 30 21 42 21 14 0 35 13 51 30 14 17 33 30 40 30 8 0 28 14 45
30 17 17 44 37 62 45 17 8 56 35 86 60 30 25 69 55 87 66 17 11 39 31 47 45 9
13 23 24 31 24 13 0 86 63 135 117 8 9 23 23 33 32 61 55 217 214 217 221 0 5
16 18 35 30 19 12 38 33 41 46 5 21 83 86 93 78 2 -2 -6 -15 -18 -30z m109 -5
c-6 -21 -21 -40 -39 -50 -16 -9 -35 -30 -43 -45 -7 -16 -25 -35 -40 -42 -16
-7 -31 -26 -38 -46 -6 -18 -21 -38 -34 -44 -13 -6 -32 -25 -42 -41 -10 -17
-26 -34 -36 -37 -10 -3 -25 -19 -33 -35 -9 -16 -29 -36 -46 -44 -16 -9 -35
-27 -41 -41 -7 -14 -27 -32 -45 -39 -18 -8 -38 -25 -44 -39 -7 -14 -26 -30
-43 -36 -17 -5 -39 -23 -48 -40 -10 -17 -27 -34 -39 -38 -12 -5 -36 -21 -53
-36 -76 -67 -128 -106 -141 -106 -7 0 -23 -13 -35 -30 -13 -19 -30 -30 -45
-30 -13 0 -32 -11 -44 -26 -11 -14 -36 -30 -55 -35 -20 -6 -44 -22 -56 -39
-12 -17 -31 -30 -42 -30 -11 0 -33 -11 -50 -25 -16 -14 -36 -25 -43 -25 -7 0
-26 -11 -42 -24 -16 -14 -43 -28 -59 -32 -16 -3 -40 -17 -54 -29 -14 -12 -40
-25 -58 -29 -19 -3 -45 -15 -59 -26 -14 -11 -36 -20 -49 -20 -13 0 -34 -11
-48 -25 -15 -15 -37 -25 -53 -25 -15 0 -39 -9 -53 -20 -14 -11 -34 -20 -45
-20 -11 0 -35 -9 -53 -20 -18 -11 -42 -20 -55 -20 -12 0 -35 -9 -52 -20 -16
-11 -42 -20 -56 -20 -15 0 -40 -7 -55 -15 -16 -8 -42 -15 -59 -15 l-30 1 24
19 c13 11 35 20 50 20 14 0 40 9 56 20 17 11 41 20 53 20 13 0 36 6 50 14 42
21 135 58 162 63 14 3 36 16 50 28 15 13 35 22 50 20 15 -1 35 7 50 20 14 12
40 25 59 29 19 3 44 17 57 31 13 14 34 25 47 25 13 0 35 8 48 18 23 18 45 30
137 77 23 12 50 31 58 43 9 13 26 22 40 22 15 0 39 14 60 35 19 19 43 35 54
35 10 0 27 11 38 24 10 13 35 31 55 40 21 8 40 22 43 31 4 9 21 23 38 32 33
17 83 55 131 101 17 16 42 34 57 40 15 6 34 24 42 40 9 17 27 33 41 36 15 4
35 22 47 41 11 19 24 35 29 35 14 0 209 195 209 208 0 6 17 23 39 36 22 14 41
36 45 50 3 14 19 32 35 41 16 8 33 28 39 44 8 23 57 63 69 56 1 -1 -2 -17 -7
-36z m-1076 -324 c-8 -20 -124 -107 -153 -115 -61 -16 -113 36 -92 93 14 36
32 35 22 -1 -10 -34 10 -68 34 -58 15 5 15 8 1 28 -9 12 -16 25 -16 29 0 12
36 5 48 -10 11 -14 12 -13 10 6 -4 26 -1 27 35 14 35 -14 54 -14 62 -1 3 6 2
10 -4 10 -6 0 -8 6 -5 13 3 8 16 12 34 9 18 -3 27 -9 24 -17z m-9241 -136 c6
-24 -1 -49 -14 -49 -4 0 -5 -8 -2 -17 4 -10 -8 -3 -26 15 -19 18 -38 29 -42
25 -13 -13 -39 -105 -33 -115 3 -4 1 -8 -5 -8 -5 0 -13 5 -16 10 -3 6 -13 10
-22 10 -13 0 -14 -2 -2 -17 12 -15 12 -16 -5 -10 -16 6 -18 4 -13 -23 4 -18 2
-30 -4 -30 -6 0 -8 4 -5 9 4 5 -5 23 -19 39 -28 33 -31 44 -12 36 8 -3 14 2
14 10 0 8 -4 13 -9 10 -4 -3 -17 -7 -28 -9 -19 -4 -21 0 -18 43 3 43 5 47 38
58 33 12 119 26 186 32 25 2 33 -2 37 -19z m4742 -258 c50 -46 91 -88 93 -95
1 -6 17 -21 35 -33 17 -13 51 -40 74 -61 42 -38 48 -52 77 -184 13 -59 -15
-38 -236 178 -112 110 -148 150 -148 169 0 33 12 32 33 -5 10 -16 50 -58 88
-92 39 -35 75 -72 79 -83 8 -18 9 -17 9 8 1 17 -7 34 -21 45 -13 9 -62 55
-110 102 -81 79 -87 88 -93 135 l-7 50 19 -26 c10 -14 59 -63 108 -108z
m-3504 -62 l-6 -43 -80 -28 c-96 -33 -101 -34 -108 -7 -3 11 -11 19 -19 18 -7
-1 -26 1 -41 6 -18 5 -33 3 -40 -4 -17 -17 -26 -13 -20 9 3 11 0 33 -5 50 -14
40 -1 38 18 -2 18 -38 61 -54 94 -35 32 18 200 84 207 81 3 -2 3 -22 0 -45z
m3934 -275 c50 -32 95 -63 100 -70 6 -7 42 -29 81 -49 39 -21 77 -47 84 -59
16 -26 52 -167 44 -175 -8 -8 -131 59 -156 86 -12 13 -26 23 -32 23 -6 1 -65
38 -131 83 -110 76 -120 86 -123 117 l-4 35 26 -24 c14 -14 29 -21 33 -17 4 4
-9 22 -30 39 -21 18 -42 47 -47 67 -17 59 -13 64 28 32 20 -16 78 -56 127 -88z
m-3696 -30 c28 -35 27 -41 -12 -57 -43 -18 -216 -124 -244 -150 -13 -11 -23
-26 -23 -32 0 -6 -11 -22 -25 -35 l-24 -23 -7 42 c-5 32 -12 43 -30 47 -24 6
-24 24 1 24 7 0 82 47 166 104 85 57 159 105 166 105 6 1 21 -11 32 -25z
m7271 -6 c0 -21 -33 -48 -59 -48 -14 0 -45 -9 -68 -20 -24 -11 -62 -29 -85
-40 -24 -11 -52 -20 -63 -20 -11 0 -33 -9 -50 -20 -16 -11 -41 -20 -55 -20
-14 -1 -36 -7 -50 -15 -27 -16 -80 -20 -80 -7 0 12 46 32 73 32 12 0 36 9 52
20 17 11 41 20 55 20 14 0 34 7 44 15 11 8 27 15 36 15 9 0 33 9 55 20 21 11
53 23 71 26 18 3 35 12 38 20 3 7 20 17 38 23 45 13 48 13 48 -1z m-496 -267
c9 -13 -39 -41 -70 -41 -15 0 -41 -4 -58 -9 -52 -16 -148 -39 -211 -51 -33 -6
-79 -15 -103 -20 -23 -6 -57 -10 -74 -10 -17 0 -45 -4 -62 -9 -80 -24 -549
-51 -560 -32 -8 12 -7 12 94 16 192 9 366 23 395 32 11 4 40 8 65 9 25 2 70 7
100 13 30 6 78 14 105 19 28 4 66 13 85 20 19 6 75 20 124 31 49 11 94 25 100
31 12 12 63 13 70 1z m-6569 -243 c-29 -23 -107 -78 -180 -126 -22 -15 -53
-39 -70 -54 -32 -30 -41 -33 -49 -20 -8 14 22 50 77 93 29 22 85 72 125 111
l73 71 27 -26 26 -26 -29 -23z m-2796 12 c26 -36 21 -50 -22 -50 -66 -1 -188
-37 -216 -64 l-28 -26 -11 25 c-16 34 -15 35 9 35 11 0 17 4 14 10 -4 6 -15 8
-24 5 -10 -3 -24 1 -31 10 -11 13 -9 15 12 15 14 0 28 3 32 8 8 7 198 59 227
61 8 0 25 -13 38 -29z m2215 -214 c-4 -11 0 -13 15 -9 18 5 21 1 21 -26 0 -17
-3 -31 -7 -31 -5 0 -8 -16 -9 -35 0 -19 -2 -37 -5 -39 -2 -2 -25 1 -52 7 -36
8 -47 15 -47 29 0 11 -5 28 -11 39 -13 25 2 46 46 65 40 17 56 17 49 0z
m-3107 -548 c21 -12 41 -26 45 -32 3 -5 15 -10 25 -11 10 -1 64 -19 120 -40
87 -32 102 -41 101 -59 -1 -12 20 -72 46 -135 26 -62 45 -116 42 -118 -2 -2
-42 11 -89 30 -47 19 -88 33 -91 30 -3 -3 -13 7 -22 23 -10 18 -39 40 -76 57
-55 27 -128 101 -128 131 0 6 11 -5 24 -25 24 -36 93 -89 114 -89 22 0 12 17
-17 29 -15 7 -42 27 -59 44 -38 40 -99 187 -78 187 3 0 22 -10 43 -22z"/>
<path d="M1527 4543 c-13 -12 -7 -25 8 -19 22 8 18 -4 -8 -28 -27 -25 -34 -72
-51 -326 -2 -30 -11 -138 -21 -240 -9 -102 -22 -250 -29 -330 -8 -80 -13 -146
-12 -147 1 -1 47 21 103 48 56 27 114 52 130 54 15 2 48 12 73 23 25 10 79 32
120 47 41 16 76 30 78 31 3 2 -71 189 -103 259 -7 17 -59 145 -115 285 -55
140 -110 276 -122 303 -20 44 -35 56 -51 40z"/>
<path d="M19186 2302 c-4 -7 -14 -11 -21 -8 -7 2 -16 2 -20 -2 -4 -4 -10 -7
-13 -7 -4 -1 -16 -6 -28 -12 -11 -7 -34 -14 -50 -17 -16 -3 -30 -10 -32 -16
-2 -5 -8 -8 -13 -5 -13 9 -90 -17 -96 -32 -3 -8 -13 -11 -24 -8 -11 4 -19 2
-19 -5 0 -7 -8 -9 -19 -5 -11 3 -28 1 -38 -4 -37 -21 -90 -42 -99 -40 -5 2
-27 -5 -49 -15 -22 -9 -53 -20 -70 -23 -16 -4 -45 -16 -65 -27 -19 -11 -44
-19 -56 -18 -12 2 -25 -2 -29 -7 -3 -6 -17 -11 -31 -11 -13 0 -24 -5 -24 -11
0 -5 -4 -7 -10 -4 -5 3 -20 0 -32 -7 -13 -6 -32 -13 -42 -15 -11 -2 -33 -10
-48 -18 -16 -7 -26 -10 -23 -5 3 4 -4 6 -16 3 -14 -4 -17 -8 -8 -13 8 -6 5
-11 -11 -20 -20 -11 -22 -10 -17 4 8 21 1 20 -37 -3 -17 -10 -56 -24 -86 -31
-30 -7 -63 -21 -73 -31 -19 -20 -32 -25 -22 -9 10 16 -21 11 -35 -5 -11 -13
-15 -13 -21 -3 -6 9 -9 9 -9 1 0 -6 -15 -15 -32 -18 -18 -4 -39 -12 -45 -17
-7 -6 -20 -8 -28 -4 -11 4 -14 2 -9 -6 5 -7 2 -9 -9 -5 -9 3 -27 -3 -41 -14
-16 -12 -27 -16 -31 -9 -5 8 -11 8 -19 1 -7 -6 -21 -12 -32 -15 -40 -9 -64
-19 -64 -27 0 -5 -7 -5 -17 -2 -12 5 -14 3 -8 -8 6 -11 5 -11 -5 -2 -10 9 -16
8 -27 -3 -8 -8 -29 -14 -46 -14 -25 0 -29 -3 -17 -11 11 -8 6 -9 -22 -4 -30 5
-39 2 -51 -15 -8 -12 -16 -17 -18 -11 -5 13 -100 -18 -116 -38 -11 -14 -14
-14 -23 -1 -6 10 -10 11 -10 3 0 -7 -9 -13 -20 -13 -11 0 -20 -7 -20 -15 0 -8
-4 -15 -10 -15 -5 0 -10 4 -10 10 0 11 -28 9 -48 -3 -7 -5 -9 -14 -5 -20 4 -7
0 -7 -10 1 -9 8 -25 11 -38 7 -17 -6 -19 -9 -8 -17 10 -7 6 -8 -13 -4 -21 5
-28 3 -28 -9 0 -11 -7 -13 -28 -9 -19 4 -34 1 -44 -9 -9 -9 -24 -13 -37 -10
-15 4 -21 1 -21 -12 0 -13 -3 -15 -13 -7 -9 8 -26 4 -60 -13 -27 -12 -57 -21
-67 -18 -12 3 -22 -3 -29 -16 -9 -16 -18 -19 -41 -14 -23 4 -30 2 -30 -10 0
-9 -9 -15 -22 -15 -13 -1 -36 -3 -53 -6 -16 -3 -43 -7 -60 -10 -16 -3 -31 -9
-33 -15 -2 -5 -9 -8 -16 -5 -8 3 -20 -2 -29 -10 -18 -19 -37 -21 -37 -4 0 6
-9 3 -19 -9 -11 -11 -30 -20 -43 -19 -12 1 -26 -3 -30 -8 -3 -5 -15 -11 -25
-12 -61 -9 -76 -12 -82 -20 -3 -5 -15 -9 -26 -8 -11 0 -26 -5 -34 -10 -8 -6
-17 -10 -20 -9 -9 4 -45 -9 -52 -18 -4 -7 -38 -15 -82 -18 -5 -1 -5 -5 -2 -11
3 -5 -1 -10 -9 -10 -9 0 -16 4 -16 10 0 9 -60 -19 -71 -34 -4 -4 -9 -2 -11 5
-3 8 -11 10 -22 6 -11 -4 -16 -13 -13 -22 5 -11 1 -12 -18 -5 -17 6 -25 6 -25
-1 0 -6 -5 -7 -11 -3 -6 3 -15 0 -20 -7 -5 -8 -9 -9 -9 -3 0 18 -58 3 -85 -22
-14 -13 -25 -19 -25 -14 0 6 -7 10 -15 10 -8 0 -15 -6 -15 -14 0 -9 -7 -12
-20 -9 -11 3 -20 0 -20 -6 0 -6 -5 -11 -11 -11 -5 0 -8 4 -4 9 3 5 -8 3 -25
-5 -18 -9 -28 -20 -24 -27 5 -8 2 -8 -7 1 -18 17 -48 15 -56 -4 -5 -13 -7 -13
-14 -2 -7 10 -9 10 -9 1 0 -7 -7 -13 -15 -13 -8 0 -15 -5 -15 -12 0 -8 -3 -9
-10 -2 -6 6 -25 8 -43 6 -27 -4 -29 -6 -12 -12 18 -7 17 -8 -9 -15 -20 -5 -31
-4 -37 6 -7 12 -9 12 -9 0 0 -7 -6 -11 -15 -7 -10 3 -15 -1 -15 -12 0 -15 -2
-15 -10 -2 -9 13 -12 13 -21 -2 -7 -14 -23 -18 -61 -18 -41 0 -49 -3 -44 -15
4 -12 0 -14 -19 -9 -14 3 -32 1 -40 -6 -8 -6 -19 -9 -25 -5 -5 3 -10 0 -10 -8
0 -8 -7 -18 -16 -21 -26 -10 -30 -6 -10 9 28 21 12 19 -34 -5 -21 -11 -46 -17
-54 -14 -9 3 -20 -3 -28 -15 -7 -12 -16 -21 -21 -21 -4 0 -6 4 -3 9 3 5 -5 8
-18 8 -18 0 -23 -4 -19 -14 5 -12 1 -14 -15 -8 -15 4 -22 2 -22 -7 0 -10 -3
-9 -10 2 -9 13 -12 12 -26 -5 -13 -17 -16 -18 -24 -5 -6 9 -13 11 -17 5 -12
-16 -55 -34 -88 -37 -16 -2 -36 -9 -43 -16 -16 -15 -32 -16 -32 -1 0 5 -5 7
-10 4 -6 -4 -8 -11 -5 -16 3 -5 -1 -6 -9 -3 -8 3 -16 -2 -19 -13 -4 -16 -5
-16 -6 0 -1 21 -2 21 -36 3 -15 -8 -34 -12 -41 -9 -8 3 -14 -1 -14 -10 0 -18
-42 -30 -52 -15 -5 9 -12 8 -25 -3 -29 -26 -53 -31 -47 -11 5 14 2 13 -13 -3
-10 -11 -27 -27 -38 -35 -17 -14 -18 -13 -12 3 5 13 1 17 -14 17 -11 0 -22 -7
-25 -15 -5 -12 -10 -13 -20 -4 -11 9 -14 8 -14 -3 0 -10 -9 -14 -29 -13 -17 1
-29 -3 -28 -9 1 -7 -14 -11 -36 -10 -28 1 -37 -2 -33 -12 3 -8 -1 -14 -10 -14
-8 0 -13 4 -10 8 3 5 -9 6 -27 3 -19 -3 -25 -6 -14 -9 31 -6 18 -18 -18 -16
-19 2 -35 -1 -35 -5 0 -16 -32 -22 -47 -9 -12 10 -17 9 -27 -3 -16 -22 -42
-29 -54 -17 -8 8 -13 7 -17 -4 -4 -10 -14 -14 -26 -11 -11 3 -19 0 -19 -7 0
-7 -7 -10 -16 -6 -21 8 -41 -4 -24 -14 7 -4 -8 -6 -34 -5 -31 2 -46 -1 -46 -9
0 -8 -11 -11 -30 -8 -17 2 -30 0 -29 -4 4 -26 -1 -36 -14 -25 -9 7 -17 7 -24
0 -5 -5 -27 -11 -47 -13 -21 -2 -42 -9 -46 -16 -6 -10 -9 -9 -13 1 -5 12 -7
12 -15 0 -6 -8 -17 -11 -26 -8 -19 8 -48 -2 -41 -13 3 -4 -9 -10 -25 -12 -17
-3 -30 -1 -30 4 0 10 -50 -20 -67 -41 -12 -13 -13 -13 -13 2 0 21 -16 22 -24
2 -6 -16 -36 -21 -36 -5 0 5 -7 7 -15 4 -8 -4 -13 -9 -11 -13 2 -3 -10 -6 -28
-7 -18 0 -53 -11 -79 -23 -27 -13 -58 -21 -72 -18 -16 3 -25 0 -25 -9 0 -20
-19 -27 -35 -14 -12 10 -15 10 -15 0 0 -8 -10 -9 -30 -5 -19 4 -30 3 -30 -4 0
-6 -10 -11 -22 -11 -19 0 -20 -2 -8 -10 11 -8 8 -9 -11 -5 -19 5 -28 2 -33
-10 -5 -13 -14 -16 -36 -11 -35 6 -78 -8 -95 -31 -8 -11 -20 -14 -38 -9 -17 4
-38 0 -62 -14 -19 -11 -35 -16 -35 -12 0 4 -16 7 -35 7 -27 1 -35 -3 -35 -17
0 -19 -15 -24 -25 -8 -9 15 -25 12 -25 -4 0 -8 -8 -13 -17 -12 -10 2 -21 -2
-25 -8 -5 -7 -8 -7 -8 3 0 10 -3 11 -14 2 -7 -6 -27 -13 -44 -15 -18 -2 -38
-8 -45 -15 -8 -6 -17 -8 -20 -4 -4 3 -7 1 -7 -6 0 -8 -7 -10 -20 -6 -14 4 -22
1 -26 -10 -6 -13 -8 -14 -15 -3 -7 10 -9 11 -9 0 0 -7 -4 -10 -10 -7 -5 3 -10
1 -10 -5 0 -6 -8 -10 -17 -9 -10 2 -29 -3 -43 -11 -14 -8 -41 -14 -60 -15 -19
0 -45 -6 -57 -13 -13 -7 -23 -10 -23 -6 0 3 -7 1 -15 -6 -12 -10 -15 -10 -15
1 0 10 -3 10 -12 1 -7 -7 -20 -12 -30 -12 -10 0 -18 -5 -18 -11 0 -5 -8 -9
-17 -8 -10 1 -29 -3 -43 -9 -19 -9 15 -11 150 -9 96 2 184 6 195 9 11 4 54 16
95 27 41 11 120 34 174 51 55 17 117 33 138 36 21 4 36 10 33 14 -2 4 6 6 18
5 12 0 30 3 39 7 10 5 37 13 60 18 24 5 77 18 118 30 41 12 91 26 110 31 19 6
47 12 61 14 14 2 39 10 55 16 16 7 36 13 44 14 8 1 40 9 70 18 30 9 114 33
185 52 339 93 422 116 450 128 17 6 32 12 35 13 3 0 24 4 47 9 25 4 40 12 36
18 -3 6 -1 7 5 3 11 -7 180 38 317 84 33 11 110 33 170 49 142 39 220 61 385
110 122 36 233 68 465 136 87 25 334 99 458 137 43 13 74 28 70 33 -4 4 -2 5
5 1 14 -9 104 16 417 114 50 16 158 49 240 75 83 25 197 61 255 80 58 18 173
54 255 80 228 71 735 234 775 250 19 8 176 60 349 116 295 95 413 138 383 139
-7 0 -10 5 -7 10 5 8 11 8 20 0 16 -13 47 -4 330 94 105 37 255 89 336 117 80
28 151 54 158 58 8 5 11 26 9 62 -2 34 -6 49 -12 41z"/>
</g>
</svg>
