<?xml version="1.0" standalone="no"?>
<!DOCTYPE svg PUBLIC "-//W3C//DTD SVG 20010904//EN"
 "http://www.w3.org/TR/2001/REC-SVG-20010904/DTD/svg10.dtd">
<svg version="1.0" xmlns="http://www.w3.org/2000/svg"
 width="2018.000000pt" height="1500.000000pt" viewBox="0 0 2018.000000 1500.000000"
 preserveAspectRatio="xMidYMid meet">
<metadata>
Created by potrace 1.15, written by Peter Selinger 2001-2017
</metadata>
<g transform="translate(0.000000,1500.000000) scale(0.100000,-0.100000)"
fill="#000000" stroke="none">
<path d="M12403 14250 c16 -5 34 -16 41 -25 10 -14 26 -17 77 -14 124 5 196
-1 436 -41 132 -22 249 -40 260 -40 17 1 17 1 -1 15 -19 15 -19 15 4 15 49 0
2 17 -105 38 -152 30 -475 62 -620 61 -83 0 -111 -3 -92 -9z"/>
<path d="M12178 14238 c-25 -24 -90 -33 -138 -21 -37 10 -138 2 -280 -23 -127
-22 -140 -32 -44 -33 124 -2 163 -18 164 -67 0 -41 -60 -59 -190 -58 -64 1
-132 7 -153 13 -31 11 -37 17 -37 42 0 32 -14 36 -66 20 -16 -5 -69 -22 -119
-37 -100 -30 -365 -131 -378 -143 -5 -5 11 -5 35 0 24 4 89 8 144 9 88 0 105
-3 127 -21 18 -14 25 -27 23 -42 -3 -12 -5 -25 -5 -28 -1 -3 -29 -21 -63 -40
-63 -34 -64 -34 -200 -34 -159 0 -176 7 -164 69 4 20 12 36 18 36 6 0 9 3 6 6
-6 6 -140 -62 -255 -129 -39 -23 -109 -63 -155 -90 -80 -46 -182 -123 -145
-111 9 3 17 9 17 13 0 21 258 59 305 45 68 -21 74 -77 13 -129 -69 -58 -119
-76 -242 -85 -117 -8 -141 -5 -168 18 -24 20 -23 54 4 87 l21 27 -35 -23 c-87
-58 -493 -397 -485 -406 3 -2 22 7 44 20 44 29 170 58 255 60 52 2 63 -2 79
-22 32 -39 25 -76 -27 -131 -62 -66 -127 -96 -239 -109 -122 -15 -139 -14
-165 7 -17 14 -22 28 -22 61 l1 43 -21 -23 c-12 -13 -47 -51 -77 -84 -31 -33
-83 -91 -116 -129 -33 -38 -65 -74 -70 -80 -31 -31 -95 -119 -91 -124 3 -2 17
3 30 12 35 22 179 56 242 56 45 0 53 -3 73 -31 21 -28 22 -36 13 -68 -6 -20
-29 -56 -51 -81 -22 -25 -41 -48 -41 -52 -1 -21 -96 -59 -199 -79 -110 -22
-114 -22 -147 -4 -22 11 -35 28 -39 47 -4 16 -11 28 -15 26 -5 -2 -54 -70
-108 -153 -160 -243 -194 -297 -187 -303 3 -4 9 -2 13 4 22 33 233 99 280 88
43 -10 72 -43 72 -80 0 -38 -57 -148 -98 -189 -34 -35 -111 -70 -197 -90 -108
-25 -128 -20 -168 37 -7 10 -16 14 -22 10 -9 -6 -65 -117 -110 -217 -10 -22
-40 -85 -66 -140 -27 -54 -47 -101 -45 -103 2 -1 28 10 57 26 63 34 173 72
206 72 31 0 79 -25 87 -45 14 -36 4 -91 -29 -168 -40 -92 -55 -112 -109 -139
-48 -25 -180 -68 -207 -68 -27 0 -75 26 -82 45 -11 26 -24 17 -40 -27 -31 -86
-137 -426 -137 -442 0 -13 3 -13 21 5 35 35 184 99 231 99 58 0 98 -38 98 -93
0 -71 -50 -217 -89 -257 -35 -37 -189 -100 -244 -100 -16 0 -42 9 -59 21 -16
12 -31 19 -33 17 -10 -10 -94 -469 -88 -480 2 -5 21 5 41 21 60 48 155 91 198
91 39 -1 84 -27 84 -49 0 -6 5 -11 10 -11 24 0 -1 -216 -33 -277 -22 -41 -55
-67 -144 -108 -74 -36 -128 -44 -165 -24 -11 6 -24 7 -28 2 -9 -9 -43 -454
-35 -461 3 -3 22 8 43 25 190 153 302 117 302 -96 0 -161 -40 -226 -180 -292
-52 -25 -74 -30 -113 -26 -26 2 -49 1 -51 -2 -6 -9 21 -431 27 -437 3 -3 34
17 69 44 82 64 98 72 148 72 31 0 48 -7 75 -31 41 -37 52 -83 54 -216 2 -108
-15 -152 -76 -199 -73 -56 -110 -73 -177 -81 -47 -6 -48 -6 -43 -37 3 -17 19
-109 36 -204 16 -96 32 -176 35 -179 4 -4 96 65 116 88 16 17 73 30 109 24 76
-13 126 -111 138 -270 7 -94 -16 -148 -87 -204 -44 -35 -100 -60 -135 -61 -33
-1 -36 -17 -15 -91 12 -41 32 -112 45 -159 21 -77 45 -151 50 -158 1 -1 22 17
46 41 53 53 88 76 124 83 36 6 87 -11 113 -39 26 -28 62 -93 62 -112 0 -7 7
-20 15 -28 8 -8 19 -43 24 -78 12 -75 -1 -144 -33 -174 -12 -11 -21 -24 -21
-30 0 -13 -80 -66 -124 -81 -43 -15 -43 -23 -1 -110 17 -34 30 -65 30 -70 0
-5 12 -31 26 -58 14 -27 28 -60 30 -74 3 -14 11 -33 18 -44 12 -17 17 -14 73
41 54 54 64 60 104 62 24 1 55 -3 69 -9 27 -11 80 -64 80 -80 0 -5 7 -12 15
-16 8 -3 15 -11 15 -17 0 -7 6 -20 14 -28 7 -9 21 -43 31 -76 9 -33 21 -69 26
-80 16 -36 -2 -135 -26 -135 -6 0 -24 -17 -38 -37 -15 -21 -27 -34 -27 -30 0
4 -15 -3 -33 -17 -19 -15 -39 -26 -45 -26 -16 0 -3 -31 23 -53 11 -10 14 -16
8 -12 -7 3 -13 4 -13 0 0 -7 31 -56 45 -71 5 -6 19 -27 30 -47 11 -20 26 -37
33 -37 10 0 12 -7 9 -22 -3 -12 -2 -29 3 -38 19 -36 39 -30 99 30 58 57 61 59
106 55 25 -3 53 -12 61 -20 11 -11 26 -13 55 -9 34 6 42 3 59 -19 17 -22 25
-24 67 -19 27 3 51 9 54 14 4 6 17 4 34 -5 l28 -14 -32 -19 c-30 -18 -31 -20
-31 -90 0 -40 -2 -78 -3 -86 -2 -7 -2 -10 0 -5 3 4 40 7 84 7 46 0 79 4 79 10
0 6 18 10 40 10 28 0 40 -4 40 -14 0 -8 14 -19 31 -25 42 -14 49 -14 49 4 0 8
9 15 20 15 17 0 20 -7 20 -40 0 -33 3 -40 20 -40 11 0 20 -7 20 -15 0 -11 11
-15 40 -15 29 0 40 4 40 15 0 11 11 15 40 15 22 0 40 -4 40 -10 0 -5 18 -10
40 -10 22 0 40 -4 40 -10 0 -5 -18 -10 -40 -10 -27 0 -40 -4 -40 -14 0 -9 20
-15 61 -20 89 -9 99 -8 99 10 0 17 22 14 28 -4 2 -7 -3 -12 -12 -12 -10 0 -16
-9 -16 -21 0 -21 3 -22 61 -15 34 3 70 6 80 6 11 0 19 7 19 15 0 8 4 15 9 15
12 0 71 -59 71 -71 0 -5 18 -9 40 -9 29 0 40 -4 40 -15 0 -12 16 -15 80 -15
79 0 80 0 80 -25 0 -17 6 -25 17 -25 15 0 15 -1 0 -18 -23 -25 -21 -34 6 -30
14 2 23 11 25 26 3 18 8 23 23 19 13 -4 23 3 33 24 12 25 12 29 0 29 -7 0 -16
11 -20 25 -5 21 -12 25 -45 25 -21 0 -39 -4 -39 -10 0 -5 -18 -10 -40 -10 -22
0 -40 5 -40 10 0 6 18 10 40 10 38 0 40 1 40 33 0 32 0 32 13 8 6 -14 18 -26
26 -29 18 -6 6 50 -14 60 -7 4 -16 19 -19 33 -9 36 -72 30 -64 -6 2 -10 -8
-14 -39 -14 -23 0 -45 -3 -49 -8 -4 -4 -1 -7 6 -7 7 0 11 -2 8 -5 -3 -3 -31 1
-64 10 -32 8 -74 15 -94 15 l-35 1 25 14 25 13 -27 11 c-16 6 -30 21 -34 35
-3 14 -19 36 -35 48 -19 15 -29 32 -29 50 0 15 -7 31 -15 36 -25 13 -33 168
-11 210 9 18 21 32 26 32 6 0 10 5 10 11 0 6 18 28 41 49 37 33 40 41 34 69
-3 17 -10 31 -15 31 -4 0 -10 8 -14 18 -3 9 -10 24 -16 32 -5 8 -22 42 -36 75
-15 33 -28 62 -30 64 -1 2 -15 -6 -29 -17 -15 -12 -51 -30 -82 -42 -74 -27
-119 -15 -174 49 -21 25 -39 52 -39 59 0 6 -4 12 -9 12 -5 0 -11 12 -13 28 -2
15 -8 26 -14 25 -27 -5 -40 231 -14 247 8 5 11 10 6 10 -8 0 6 14 117 118 21
19 34 38 29 41 -5 3 -15 24 -22 46 -7 22 -16 49 -21 60 -5 11 -15 43 -24 70
-24 75 -30 83 -52 63 -31 -27 -105 -58 -140 -58 -81 0 -153 87 -183 220 -31
142 -1 223 111 304 25 19 56 37 68 41 14 4 20 13 17 23 -2 9 -11 49 -20 87
-48 220 -39 205 -103 165 -68 -42 -111 -48 -167 -22 -52 25 -79 72 -101 178
-20 95 -19 147 6 199 33 70 131 149 204 165 35 7 34 -2 17 184 -6 66 -16 124
-21 129 -6 6 -20 2 -39 -11 -28 -21 -106 -52 -129 -52 -7 0 -35 14 -62 30 -64
40 -75 71 -75 220 -1 134 7 156 81 216 67 55 125 84 166 84 31 0 35 3 41 31
10 53 7 299 -4 299 -6 0 -29 -12 -53 -27 -51 -32 -138 -44 -165 -21 -9 8 -25
18 -34 21 -27 10 -41 82 -36 192 5 111 21 150 80 205 46 42 148 91 195 94 55
3 61 9 68 74 7 74 25 201 32 230 7 28 -19 30 -62 4 -16 -10 -50 -24 -74 -31
-40 -11 -47 -11 -90 11 -58 30 -76 74 -67 164 15 154 61 223 190 285 71 35 85
38 131 33 50 -6 52 -5 63 22 6 16 14 43 18 59 3 17 19 76 35 131 16 56 29 105
29 108 0 12 -32 6 -71 -15 -22 -11 -62 -23 -88 -26 -65 -7 -115 24 -130 83
-20 79 42 244 111 296 74 55 174 87 250 81 64 -6 61 -9 102 98 13 35 36 95 51
132 15 37 25 71 22 74 -4 3 -24 -2 -47 -11 -22 -9 -61 -21 -86 -26 -40 -9 -50
-8 -85 12 -31 17 -42 31 -52 67 -11 39 -11 52 1 81 61 152 112 207 234 245 93
29 139 31 179 8 35 -21 34 -21 87 78 22 42 59 107 81 144 23 37 39 70 36 73
-2 3 -35 -5 -73 -17 -86 -27 -111 -26 -153 2 -66 45 -59 127 22 234 47 63 99
94 201 122 83 22 165 20 175 -5 11 -29 42 -12 84 47 40 57 84 113 128 164 44
53 49 52 -102 26 -64 -11 -112 20 -122 77 -8 51 4 78 64 144 63 69 113 94 226
114 96 17 137 10 162 -26 8 -11 18 -20 23 -20 5 0 67 57 137 126 l128 126 -87
-7 c-80 -7 -89 -6 -114 14 -16 12 -33 37 -39 55 -17 48 6 89 82 147 72 55 131
71 266 73 85 1 88 0 111 -29 l24 -30 59 43 c32 23 93 66 135 95 43 28 78 57
78 63 0 7 -17 9 -49 6 -94 -9 -141 20 -141 87 0 32 6 44 37 71 62 54 116 73
230 78 119 5 138 2 176 -34 l29 -26 156 78 157 78 -60 8 c-65 8 -95 31 -95 74
0 73 66 111 212 120 120 8 172 -5 187 -46 5 -17 16 -30 22 -30 7 0 73 20 146
45 73 25 139 45 148 45 22 0 18 16 -9 34 -26 16 -26 32 -2 89 15 38 68 51 165
42 69 -6 78 -10 106 -41 36 -40 59 -42 181 -20 44 8 106 17 139 21 73 7 155
26 155 36 0 12 -54 29 -145 43 -135 22 -205 36 -234 48 -14 5 -71 18 -126 28
-154 29 -522 109 -615 133 -30 8 -85 20 -123 27 -37 8 -75 21 -85 30 -13 12
-45 18 -117 23 -114 7 -227 36 -185 48 14 4 21 7 16 8 -5 1 -3 8 4 16 11 13 7
15 -23 15 -20 0 -42 -6 -49 -12z"/>
<path d="M14790 13369 c0 -2 89 -94 198 -204 186 -188 278 -292 397 -447 28
-36 53 -64 58 -61 4 2 7 -1 7 -7 0 -11 10 -25 45 -63 11 -12 25 -29 30 -38 6
-9 32 -47 58 -83 88 -120 276 -446 353 -611 15 -33 30 -62 33 -65 3 -3 12 -23
20 -45 7 -22 28 -72 47 -111 18 -39 36 -84 40 -100 4 -16 10 -33 14 -39 21
-30 147 -399 191 -560 11 -38 22 -77 24 -85 34 -120 79 -311 90 -380 2 -19 15
-98 28 -175 21 -120 32 -189 52 -335 19 -126 36 -485 35 -690 -1 -52 0 -104 0
-115 2 -23 2 -30 0 -150 -2 -49 -7 -93 -13 -96 -6 -4 -7 -15 -2 -25 13 -28 14
-54 2 -54 -5 0 -4 -6 2 -14 8 -10 9 -16 1 -21 -6 -3 -8 -10 -5 -15 3 -5 1 -11
-5 -15 -5 -3 -10 -12 -10 -18 0 -7 4 -6 10 3 14 21 13 -35 0 -61 -6 -10 -12
-57 -13 -103 -1 -46 -5 -79 -10 -73 -4 7 -7 -8 -6 -33 1 -51 -5 -108 -14 -130
-10 -26 -14 -79 -5 -74 4 3 8 -2 8 -10 0 -8 -5 -18 -10 -21 -6 -4 -8 -15 -5
-26 4 -11 2 -19 -4 -19 -7 0 -10 -25 -9 -70 2 -54 -1 -73 -12 -80 -12 -8 -12
-10 -1 -10 9 0 10 -4 4 -12 -6 -7 -11 -35 -12 -63 -1 -27 -6 -52 -11 -55 -5
-3 -15 -34 -23 -70 -12 -49 -13 -67 -4 -72 9 -6 8 -8 -2 -8 -7 0 -11 -6 -8
-14 3 -8 2 -16 -3 -18 -5 -2 -11 -25 -12 -53 -2 -27 -7 -53 -12 -56 -8 -6 -51
-192 -63 -271 -3 -21 -9 -38 -13 -38 -5 0 -6 -10 -2 -22 3 -14 1 -19 -6 -14
-7 4 -13 -7 -17 -31 -7 -38 -21 -85 -65 -216 -12 -37 -20 -76 -17 -87 3 -13
-1 -24 -13 -30 -18 -10 -37 -69 -32 -97 2 -7 -2 -13 -8 -13 -7 0 -9 -8 -5 -19
3 -11 0 -21 -9 -24 -8 -3 -17 -21 -21 -39 -4 -18 -17 -55 -30 -83 -40 -84 -75
-177 -75 -201 0 -13 -4 -26 -10 -29 -17 -11 -50 -98 -44 -117 3 -12 0 -18 -9
-18 -8 0 -20 -19 -27 -42 -8 -24 -19 -50 -26 -58 -20 -25 -44 -90 -38 -105 4
-9 0 -15 -8 -15 -7 0 -19 -12 -25 -27 -6 -16 -19 -41 -29 -58 -30 -52 -35 -66
-29 -75 4 -6 2 -10 -4 -10 -10 0 -54 -85 -55 -108 -1 -7 -6 -16 -12 -20 -5 -4
-26 -38 -46 -77 -64 -126 -88 -169 -97 -175 -4 -3 -27 -44 -51 -93 -23 -48
-47 -91 -54 -95 -19 -12 -56 -90 -50 -105 3 -9 -3 -16 -15 -20 -12 -3 -24 -13
-28 -24 -4 -10 -14 -29 -23 -43 -9 -14 -28 -43 -42 -65 -13 -22 -41 -65 -61
-95 -21 -30 -37 -60 -37 -67 0 -6 -5 -13 -11 -15 -6 -2 -21 -20 -33 -40 -11
-20 -42 -67 -68 -106 -27 -38 -48 -74 -48 -80 0 -6 -3 -12 -8 -14 -18 -8 -82
-97 -82 -114 0 -11 -10 -24 -22 -29 -12 -6 -42 -35 -65 -65 -24 -30 -56 -70
-71 -89 -15 -19 -28 -37 -30 -42 -2 -4 -18 -23 -36 -42 -18 -20 -36 -49 -39
-66 -4 -18 -13 -31 -21 -31 -8 0 -19 -6 -23 -13 -4 -8 -16 -17 -26 -20 -13 -5
-16 -13 -12 -27 5 -16 2 -20 -15 -20 -16 0 -20 4 -16 16 4 9 -1 28 -10 42 -9
13 -11 21 -5 18 6 -4 11 0 11 8 0 9 -4 16 -10 16 -5 0 -10 6 -10 14 0 7 -11
30 -25 50 -13 20 -22 36 -18 36 3 0 -1 8 -9 18 -8 9 -28 44 -44 77 -15 33 -39
77 -52 97 -13 20 -21 41 -18 46 3 5 -6 19 -19 30 -14 12 -25 29 -25 37 0 8 -3
15 -7 15 -9 0 -33 48 -33 66 0 7 -3 14 -8 16 -15 6 -119 278 -127 333 -4 22
-10 49 -14 60 -5 11 -23 65 -41 120 -19 55 -37 102 -41 105 -10 7 -31 89 -25
98 3 5 -2 22 -11 38 -8 16 -17 49 -20 74 -3 25 -9 47 -13 50 -5 3 -14 64 -20
135 -11 141 -26 237 -59 385 -25 108 -38 318 -22 347 12 24 14 147 7 386 -4
116 -3 187 3 187 5 0 8 15 5 33 -3 17 2 57 11 87 9 30 19 70 22 88 3 18 9 35
14 38 5 3 9 15 9 27 0 13 7 49 15 81 8 32 18 85 21 119 15 176 66 373 130 513
13 28 26 66 30 85 3 19 12 54 20 79 7 25 20 72 28 105 32 130 67 224 106 285
20 31 50 94 50 105 0 6 9 17 20 25 11 8 20 19 20 25 0 6 11 26 23 45 13 19 39
73 58 120 18 47 39 92 45 100 7 8 15 32 19 53 5 23 16 44 30 53 13 9 25 29 28
50 3 19 18 49 32 67 70 86 95 120 95 128 0 5 7 9 15 9 8 0 15 3 15 8 0 4 15
23 33 43 38 43 56 68 63 92 4 9 10 17 14 17 4 0 17 23 29 50 12 28 30 59 39
70 33 36 42 49 42 60 0 20 144 170 189 198 16 9 28 20 27 24 -1 4 18 20 41 37
24 17 42 37 40 43 -1 7 8 14 21 16 13 2 22 10 22 20 0 9 19 38 43 63 23 26 58
68 77 94 19 26 43 54 53 63 10 9 46 43 80 75 34 33 81 70 105 84 23 14 42 28
42 32 0 3 14 12 30 20 30 13 99 69 129 105 9 10 25 26 36 35 11 9 40 37 66 64
25 26 54 47 63 47 9 0 16 7 16 15 0 25 65 86 107 100 25 9 38 19 38 32 0 14 6
17 28 15 19 -3 33 3 42 15 8 10 15 13 15 6 0 -14 30 -6 30 9 0 5 -4 6 -10 3
-5 -3 -9 2 -8 12 0 10 0 27 -1 38 -1 16 -3 17 -11 5 -5 -8 -12 -11 -16 -7 -4
4 -3 12 3 18 13 13 6 42 -8 33 -5 -3 -9 2 -9 11 0 9 4 14 9 11 5 -4 6 4 3 16
-5 19 -7 20 -10 6 -2 -10 -8 -18 -13 -18 -6 0 -7 -4 -4 -10 3 -5 3 -16 -1 -22
-6 -9 -10 -5 -14 12 -4 17 -20 32 -50 48 -25 12 -51 30 -58 40 -11 15 -14 15
-23 2 -8 -13 -11 -13 -20 3 -6 9 -15 14 -21 11 -7 -5 -8 -2 -3 6 4 7 2 16 -6
21 -12 8 -12 11 1 19 13 8 12 11 -4 23 -23 17 -139 30 -144 16 -8 -21 -22 -7
-22 21 0 17 -4 30 -10 30 -5 0 -10 -7 -10 -15 0 -8 -4 -15 -10 -15 -5 0 -10
20 -10 45 0 25 -4 45 -10 45 -5 0 -10 9 -10 21 0 15 5 20 23 17 20 -3 23 2 29
47 14 106 12 112 -29 119 -57 11 -103 28 -156 58 -55 32 -103 36 -168 13 -54
-19 -79 -42 -79 -71 0 -13 -4 -26 -10 -29 -13 -8 -13 -55 0 -55 22 0 -57 -57
-110 -80 -44 -19 -73 -24 -145 -25 -83 0 -93 2 -132 29 -51 34 -76 32 -172
-16 -74 -37 -101 -70 -83 -99 20 -31 15 -117 -9 -150 -39 -56 -162 -109 -253
-109 -23 0 -58 11 -87 27 -47 25 -50 26 -88 11 -51 -20 -127 -77 -140 -106
-17 -35 -13 -53 15 -83 25 -26 26 -31 19 -91 -8 -63 -24 -88 -97 -145 -79 -61
-254 -90 -289 -47 -6 8 -21 14 -33 14 -48 0 -156 -106 -156 -152 0 -7 21 -35
46 -61 50 -52 52 -60 24 -160 -15 -53 -103 -145 -166 -173 -71 -31 -159 -40
-205 -21 -34 14 -38 14 -62 -7 -33 -27 -97 -114 -97 -130 0 -7 28 -40 61 -74
l62 -62 -7 -61 c-7 -74 -36 -136 -93 -199 -59 -66 -125 -93 -230 -96 -45 -1
-87 -5 -93 -9 -15 -9 -70 -121 -70 -143 0 -12 15 -25 42 -38 23 -10 46 -27 52
-38 6 -10 21 -29 34 -42 22 -23 26 -37 22 -84 -2 -37 -32 -140 -40 -140 -4 0
-12 -18 -19 -39 -23 -80 -128 -144 -253 -158 -66 -7 -75 -15 -100 -86 -29 -83
-26 -93 33 -108 40 -10 59 -23 85 -54 18 -22 37 -52 43 -66 20 -54 -31 -266
-78 -323 -37 -43 -153 -96 -212 -96 -40 0 -54 -27 -66 -128 -6 -55 6 -68 66
-76 41 -5 55 -13 90 -51 57 -61 63 -83 56 -192 -5 -83 -18 -135 -46 -183 -5
-8 -13 -24 -18 -35 -12 -28 -58 -59 -111 -74 -76 -22 -90 -30 -100 -56 -12
-31 -11 -153 1 -160 4 -3 36 -8 71 -12 56 -5 88 -19 88 -38 0 -4 11 -15 23
-26 42 -33 59 -97 55 -212 -2 -72 -8 -112 -20 -136 -10 -19 -18 -41 -18 -50 0
-17 -58 -58 -139 -96 l-49 -24 5 -48 c11 -125 22 -143 83 -143 38 0 104 -24
125 -45 32 -32 68 -105 76 -154 18 -108 22 -171 10 -171 -6 0 -11 -13 -11 -29
0 -16 -7 -34 -15 -41 -8 -7 -15 -18 -15 -26 0 -15 -61 -64 -79 -64 -17 0 -50
-41 -51 -61 0 -33 39 -161 56 -180 13 -15 30 -19 74 -19 42 0 59 -4 63 -15 4
-8 21 -18 38 -23 24 -6 41 -21 61 -53 15 -25 29 -54 31 -65 2 -10 9 -31 15
-46 13 -32 15 -85 6 -153 -6 -41 -15 -57 -56 -97 -36 -37 -48 -56 -48 -79 0
-42 30 -130 46 -136 8 -3 14 -10 14 -17 0 -7 26 -11 74 -12 77 0 139 -21 150
-49 3 -8 11 -15 18 -15 7 0 19 -12 26 -28 6 -15 26 -42 42 -61 17 -18 30 -40
30 -48 0 -8 7 -27 15 -43 13 -26 14 -40 3 -95 -10 -57 -18 -72 -55 -109 -33
-33 -43 -51 -43 -75 0 -18 6 -34 14 -37 8 -3 17 -16 20 -29 4 -14 15 -29 26
-35 11 -6 20 -20 20 -30 0 -11 4 -20 10 -20 5 0 12 -11 16 -25 3 -14 10 -25
15 -25 5 0 9 -7 9 -15 0 -9 7 -18 15 -21 8 -4 15 -15 15 -25 0 -10 4 -19 10
-19 5 0 7 -6 4 -14 -3 -8 6 -32 20 -54 14 -22 28 -52 32 -66 3 -14 10 -26 15
-26 5 0 28 -18 50 -40 33 -32 37 -40 23 -41 -16 0 -15 -2 4 -9 12 -5 22 -18
22 -29 0 -11 9 -22 20 -26 11 -4 18 -10 15 -15 -3 -5 8 -16 25 -25 18 -9 38
-31 46 -51 8 -19 19 -34 24 -34 6 0 10 -6 10 -13 0 -8 11 -20 25 -27 14 -7 25
-17 25 -21 0 -5 20 -28 44 -53 24 -24 52 -58 60 -75 9 -17 24 -31 34 -30 15 0
14 1 -2 8 -16 6 -17 9 -4 13 8 4 21 2 29 -3 11 -8 9 -14 -13 -32 -16 -13 -28
-27 -28 -33 0 -12 -54 -54 -70 -54 -5 0 -10 -7 -10 -15 0 -8 -7 -15 -15 -15
-8 0 -19 -9 -25 -19 -5 -11 -19 -23 -30 -26 -11 -3 -20 -13 -20 -21 0 -8 -10
-19 -22 -24 -13 -4 -41 -25 -62 -44 -22 -20 -43 -36 -47 -36 -4 0 -33 -24 -65
-52 -31 -29 -73 -61 -93 -72 -20 -10 -45 -27 -56 -38 -25 -24 -114 -86 -137
-94 -9 -3 -18 -14 -21 -25 -3 -11 -14 -19 -25 -19 -11 0 -26 -7 -33 -16 -7 -9
-22 -20 -34 -25 -19 -9 -90 -54 -226 -147 -35 -23 -68 -42 -73 -42 -6 0 -22
-12 -35 -25 -13 -14 -28 -25 -33 -25 -5 0 -22 -8 -36 -19 -15 -10 -44 -28 -64
-40 -21 -11 -55 -31 -75 -42 -21 -12 -63 -35 -93 -52 -30 -16 -62 -35 -70 -42
-8 -6 -30 -17 -47 -24 -18 -7 -43 -23 -57 -36 -13 -12 -39 -28 -57 -34 -18 -6
-43 -21 -56 -32 -12 -12 -28 -19 -36 -16 -8 3 -40 -8 -73 -24 -32 -16 -63 -29
-68 -29 -5 0 -35 -18 -68 -40 -32 -23 -64 -40 -71 -39 -19 3 -67 -12 -67 -22
0 -5 -9 -9 -19 -9 -11 0 -26 -7 -35 -15 -8 -8 -23 -15 -34 -15 -10 0 -27 -8
-36 -19 -9 -10 -35 -21 -57 -24 -26 -3 -46 -13 -56 -27 -11 -15 -22 -20 -37
-16 -23 6 -126 -55 -126 -75 0 -6 -4 -8 -9 -5 -5 4 -50 -10 -101 -29 -50 -19
-98 -35 -106 -35 -8 0 -14 -4 -14 -10 0 -5 21 -3 48 5 26 8 82 25 124 37 53
16 77 27 75 37 -1 8 4 16 11 18 6 3 12 -2 12 -11 0 -14 7 -13 53 5 28 11 84
29 122 39 39 10 133 35 209 54 76 20 142 38 145 41 4 2 76 22 161 44 85 22
202 53 260 69 162 45 431 118 580 156 160 41 198 52 350 100 63 20 153 48 200
63 47 14 90 30 96 34 6 5 30 10 53 12 22 1 41 5 41 10 0 4 7 7 16 7 8 0 13 -4
10 -9 -15 -24 100 -71 174 -71 19 0 30 -5 30 -14 0 -9 15 -17 40 -21 22 -4 40
-10 40 -14 0 -8 27 -17 118 -41 23 -6 42 -14 42 -18 0 -5 22 -16 48 -25 55
-20 96 -72 71 -88 -8 -5 -23 -7 -34 -4 -11 3 -71 8 -132 12 -90 5 -113 3 -113
-7 0 -10 -26 -12 -130 -6 -107 6 -135 4 -160 -9 -17 -9 -30 -11 -30 -5 0 5
-18 10 -40 10 -33 0 -40 -3 -40 -20 0 -35 -37 -45 -174 -45 l-130 0 -7 -25
c-5 -17 -7 -19 -8 -7 -2 31 -25 13 -28 -21 -2 -23 2 -32 12 -32 8 0 20 -9 27
-20 7 -11 18 -20 24 -20 7 0 14 -6 17 -14 3 -8 30 -25 60 -40 30 -14 57 -33
61 -41 4 -11 13 -14 26 -10 13 4 22 1 26 -9 3 -9 12 -16 19 -16 7 0 18 -7 25
-15 10 -13 9 -15 -9 -15 -11 0 -21 -6 -21 -14 0 -7 -7 -19 -15 -26 -11 -9 -14
-23 -10 -44 6 -29 5 -30 -9 -12 -19 24 -36 12 -36 -25 0 -16 -6 -32 -14 -35
-7 -3 -21 -23 -31 -45 -10 -21 -21 -39 -25 -39 -16 0 -71 -60 -75 -81 -4 -18
-24 -47 -55 -79 -3 -3 -13 -22 -22 -42 -10 -22 -25 -38 -35 -39 -11 0 -13 -3
-5 -6 6 -2 12 -13 12 -23 0 -14 -12 -22 -42 -30 -28 -8 -37 -14 -28 -20 16
-10 5 -41 -13 -35 -19 8 -68 -51 -74 -91 -4 -22 -11 -34 -22 -34 -10 0 -24
-18 -35 -47 -16 -38 -21 -43 -26 -27 -7 18 -7 18 -14 -3 -4 -12 -20 -33 -37
-47 -17 -15 -29 -34 -29 -49 0 -14 -7 -30 -15 -37 -8 -7 -15 -21 -15 -30 0
-10 -11 -27 -25 -38 -14 -11 -25 -26 -25 -34 0 -8 -16 -29 -35 -48 -31 -30
-33 -35 -18 -42 16 -6 16 -8 -4 -14 -23 -6 -33 -44 -13 -44 6 0 10 -4 10 -10
0 -5 -15 -10 -33 -10 -27 0 -39 -7 -63 -40 -16 -22 -34 -40 -40 -40 -7 0 -15
-11 -18 -25 -4 -14 -11 -25 -16 -25 -14 0 -12 -28 3 -33 10 -4 10 -7 0 -18
-11 -11 -13 -10 -13 4 0 32 -17 17 -29 -25 l-13 -42 -16 29 c-16 30 -17 30
-20 6 -2 -13 2 -27 8 -31 8 -5 0 -15 -23 -29 -38 -23 -55 -51 -32 -51 30 0 3
-39 -37 -53 -10 -4 -18 -15 -18 -25 0 -10 -5 -23 -12 -30 -9 -9 -7 -12 10 -12
15 0 22 6 22 20 0 11 5 20 10 20 6 0 10 -9 10 -20 0 -20 7 -20 4000 -20 l4000
0 0 5314 0 5313 -57 21 c-55 20 -111 20 -123 1 -3 -4 -25 -9 -50 -12 -37 -3
-46 -8 -48 -26 -4 -23 -11 -28 -52 -35 -14 -3 -27 -5 -29 -5 -2 -1 8 -12 23
-26 21 -19 23 -25 10 -25 -13 0 -14 -3 -4 -15 19 -23 4 -34 -33 -24 -76 21
-160 39 -180 39 -12 0 -46 9 -75 20 -29 11 -61 20 -71 20 -23 0 -81 -52 -63
-58 6 -2 12 -14 12 -27 0 -13 5 -27 10 -30 6 -3 10 -13 10 -21 0 -8 9 -27 20
-42 10 -15 24 -45 29 -67 10 -45 33 -107 42 -115 8 -8 36 -91 43 -127 4 -23 2
-33 -7 -33 -7 0 -18 -5 -24 -11 -18 -18 -123 -58 -123 -47 0 6 -6 5 -15 -2 -8
-7 -15 -18 -15 -25 0 -8 -11 -22 -25 -33 -14 -11 -25 -25 -25 -31 0 -6 -8 -11
-18 -11 -11 0 -25 -14 -35 -35 -9 -19 -22 -35 -27 -35 -6 0 -9 -4 -6 -8 7 -11
-68 -85 -77 -76 -9 10 -77 -66 -77 -86 0 -11 -18 -25 -51 -39 -36 -14 -50 -25
-46 -35 10 -27 -12 -86 -33 -86 -10 0 -20 6 -23 13 -2 6 -2 -12 1 -40 4 -51 3
-53 -20 -53 -13 0 -32 -10 -43 -22 l-20 -23 -3 23 c-6 42 -24 23 -20 -23 2
-36 0 -45 -13 -45 -9 0 -34 -7 -55 -16 -37 -15 -37 -17 -19 -31 18 -12 20 -12
23 1 4 17 34 20 67 7 15 -6 3 -11 -48 -21 l-68 -14 2 -48 c2 -38 -2 -51 -17
-63 -10 -8 -23 -15 -27 -15 -20 0 -45 -85 -40 -130 4 -37 1 -52 -13 -68 -22
-26 -34 -28 -34 -7 0 8 5 15 10 15 6 0 10 9 10 20 0 17 -7 20 -40 20 -33 0
-40 -3 -40 -20 0 -11 5 -20 10 -20 6 0 10 -7 10 -15 0 -8 -4 -15 -10 -15 -5 0
-10 5 -10 12 0 7 -18 -6 -40 -27 -30 -30 -40 -35 -40 -21 0 10 -6 16 -12 13
-9 -2 -12 -20 -10 -55 l4 -52 -31 0 c-17 0 -31 5 -31 10 0 6 -18 10 -40 10
-22 0 -40 -4 -40 -10 0 -5 18 -10 40 -10 33 0 40 -3 40 -20 0 -17 -7 -20 -40
-20 -22 0 -40 -5 -40 -11 0 -7 -17 -10 -44 -7 -34 2 -46 -1 -49 -13 -3 -13 5
-14 54 -11 61 5 71 -3 49 -38 -8 -13 -10 -12 -10 3 0 13 -9 17 -40 17 -30 0
-40 -4 -40 -16 0 -8 -5 -12 -11 -8 -11 6 -8 -25 7 -78 3 -10 1 -18 -5 -18 -6
0 -11 8 -12 18 -1 11 -4 8 -9 -8 -7 -24 -7 -23 -15 12 -4 20 -4 42 0 48 25 40
25 665 1 872 -32 266 -43 333 -115 683 -73 355 -75 367 -116 500 -36 119 -49
158 -139 408 -25 71 -46 135 -46 143 0 8 -18 53 -40 100 -22 47 -40 90 -40 95
0 5 -4 9 -8 9 -5 0 -16 17 -26 38 -10 20 -39 66 -65 102 -26 36 -65 94 -86
130 -69 115 -264 403 -326 482 -59 76 -60 76 -87 62 -37 -19 -48 -18 -117 16
-33 17 -65 30 -71 30 -6 0 -17 7 -24 15 -7 9 -19 14 -27 11 -7 -3 -13 1 -13
10 0 10 -6 14 -14 11 -17 -7 -40 18 -31 32 3 7 0 8 -10 5 -8 -4 -22 -1 -30 6
-10 9 -15 9 -15 1 0 -6 -7 -11 -15 -11 -9 0 -12 6 -8 16 5 14 -2 16 -53 14
-85 -4 -103 -2 -84 10 13 8 12 10 -2 10 -10 0 -20 -1 -21 -2 -2 -2 -11 3 -20
10 -9 8 -21 11 -27 7 -6 -4 -17 -1 -25 5 -11 9 -15 9 -15 1 0 -14 -37 -15 -45
-1 -3 6 2 11 12 11 19 1 11 4 -162 40 -60 13 -111 27 -113 32 -2 4 -12 7 -23
7 -10 0 -19 4 -19 9 0 5 -20 12 -45 15 -24 4 -47 11 -50 17 -4 5 -18 9 -33 9
-15 0 -38 7 -50 16 -12 8 -43 21 -69 29 -104 29 -127 43 -218 134 -51 50 -97
91 -103 91 -5 0 -12 6 -15 14 -6 14 -257 148 -257 137 1 -18 27 -35 138 -91
107 -53 128 -68 172 -121 67 -81 67 -109 -1 -74 -16 9 -35 13 -41 9 -6 -4 -8
-3 -4 4 3 6 -4 14 -16 17 -13 4 -31 14 -40 22 -9 8 -22 12 -30 7 -7 -4 -10 -4
-6 1 5 5 -9 20 -30 34 -20 14 -46 33 -56 43 -11 10 -28 18 -39 18 -11 0 -75
56 -156 138 -178 178 -391 382 -391 371z m1048 -1065 c26 -15 79 -47 117 -72
39 -25 74 -45 78 -44 4 1 7 -3 5 -10 -2 -12 18 -57 31 -68 3 -3 18 -28 33 -57
l27 -51 -30 8 c-41 12 -198 112 -230 147 -30 32 -99 145 -99 162 0 17 17 13
68 -15z m1453 -455 c113 -81 141 -107 173 -159 41 -69 52 -108 33 -116 -16 -6
-142 53 -184 86 -32 24 -123 166 -123 190 0 41 43 40 101 -1z m-895 -409 c8 0
14 -8 14 -18 0 -10 9 -38 21 -61 16 -35 48 -125 49 -139 0 -8 -66 35 -145 95
-89 67 -90 69 -132 163 -23 52 -42 101 -42 107 -1 7 49 -23 110 -67 61 -44
117 -80 125 -80z m1269 -355 c102 -78 111 -90 140 -184 37 -116 22 -125 -80
-47 -99 76 -145 148 -162 254 -8 48 17 42 102 -23z m-1114 -400 c56 -47 106
-85 110 -85 5 0 9 -9 9 -21 0 -12 6 -47 14 -78 26 -105 29 -131 11 -131 -22 0
-192 149 -204 179 -19 49 -59 221 -51 221 5 0 54 -38 111 -85z m1318 -392 c25
-21 65 -57 87 -80 37 -39 42 -51 53 -121 7 -42 14 -89 17 -104 5 -23 2 -28
-14 -28 -20 0 -155 118 -172 151 -14 24 -50 201 -44 211 10 15 27 8 73 -29z
m-1178 -500 c49 -48 89 -94 89 -103 0 -9 5 -21 11 -27 6 -6 14 -53 19 -104 4
-52 11 -102 15 -111 4 -11 3 -18 -4 -18 -6 0 -11 4 -11 10 0 5 -6 7 -13 4 -7
-2 -51 34 -99 83 l-85 88 -7 80 c-4 44 -9 104 -12 133 -4 28 -3 52 1 52 4 0
47 -39 96 -87z m1295 -395 c87 -94 97 -113 100 -189 2 -38 6 -85 10 -104 4
-25 3 -35 -6 -35 -15 0 -121 105 -138 135 -14 28 -28 235 -15 235 6 0 28 -19
49 -42z m-1238 -597 c31 -35 52 -106 51 -170 -2 -52 -2 -54 -10 -21 -5 24 -7
8 -4 -49 3 -46 2 -81 -2 -78 -3 4 -12 2 -18 -3 -9 -7 -30 10 -74 60 -34 38
-68 82 -76 97 -18 34 -20 208 -4 263 l11 36 52 -55 c29 -31 62 -67 74 -80z
m1203 -303 c81 -96 91 -135 75 -287 l-8 -74 -44 48 c-24 25 -44 53 -44 61 0 9
-4 13 -9 10 -4 -3 -16 3 -26 14 -14 16 -15 22 -5 35 7 8 14 53 17 102 6 123
10 131 44 91z m-1320 -693 c23 -37 24 -76 3 -169 -26 -114 -38 -151 -51 -151
-17 0 -123 139 -123 162 0 24 49 273 56 284 6 10 84 -76 115 -126z m-3082 17
c16 -15 33 -47 39 -74 11 -41 9 -52 -9 -95 -21 -49 -55 -93 -72 -93 -5 0 -15
-7 -21 -14 -13 -18 -83 -6 -78 13 1 6 -9 16 -23 21 -14 5 -25 16 -25 25 0 9
-9 15 -23 15 -35 0 -54 21 -61 66 -8 54 3 104 23 112 9 3 22 14 30 25 7 10 19
16 26 13 8 -3 19 2 25 9 9 11 27 13 71 9 52 -4 59 -3 60 13 1 17 2 17 6 0 3
-10 17 -31 32 -45z m-186 -654 c3 -10 7 -10 20 1 17 13 18 13 21 -11 0 -7 12
-14 25 -14 25 -1 61 -36 61 -59 0 -7 7 -18 15 -25 15 -12 15 -69 1 -125 -3
-11 -7 -33 -11 -48 -6 -31 -65 -94 -107 -116 -16 -8 -28 -18 -28 -23 0 -4 -5
-8 -11 -8 -7 0 -18 -8 -25 -17 -13 -17 -13 -17 -14 0 0 9 5 17 10 17 6 0 10 5
10 10 0 6 -7 10 -15 10 -9 0 -18 7 -21 15 -4 8 -10 13 -15 10 -4 -3 -13 3 -19
14 -6 12 -16 18 -25 15 -9 -4 -15 0 -15 8 0 7 -10 20 -21 28 -29 20 -49 70
-49 123 0 51 17 109 37 120 7 4 13 16 13 27 0 13 10 21 33 26 28 6 29 8 12 14
-11 5 6 6 38 3 39 -4 57 -2 57 6 0 15 17 14 23 -1z m2938 -250 c10 -13 33 -44
50 -71 26 -40 30 -53 24 -84 -11 -63 -93 -263 -106 -263 -5 0 -30 32 -55 70
l-47 70 48 150 c27 83 53 150 58 150 5 0 17 -10 28 -22z m-2898 -454 c25 -4
37 -11 37 -23 0 -9 8 -21 19 -28 23 -15 55 -82 70 -148 10 -42 9 -56 -3 -80
-9 -17 -16 -37 -16 -46 0 -31 -52 -131 -65 -125 -7 2 -30 -6 -51 -20 -48 -29
-104 -31 -128 -5 -9 10 -14 25 -10 35 3 9 1 16 -5 16 -6 0 -11 -7 -11 -15 0
-8 -3 -15 -8 -15 -14 0 -43 41 -36 51 3 5 -5 18 -18 28 -30 24 -50 101 -43
169 6 67 15 102 25 102 4 0 11 11 14 25 4 14 11 25 16 25 6 0 10 7 10 15 0 8
6 15 14 15 8 0 17 7 20 16 4 10 14 14 26 11 11 -3 20 -1 20 5 0 10 36 7 123
-8z m2532 -559 c47 -67 45 -81 -29 -219 -84 -154 -76 -150 -120 -77 -43 70
-43 67 19 191 24 47 51 102 60 123 10 20 21 37 25 37 4 0 24 -25 45 -55z
m-2471 -166 c10 -15 22 -20 35 -16 15 4 27 -5 47 -32 15 -20 33 -41 41 -48 29
-23 49 -138 35 -200 -7 -30 -7 -43 1 -43 7 0 7 -4 -1 -12 -7 -7 -12 -20 -12
-30 0 -11 -20 -41 -45 -67 -25 -27 -42 -51 -38 -53 4 -3 2 -3 -6 -1 -7 2 -20
-2 -28 -8 -10 -9 -17 -9 -25 -1 -7 7 -27 12 -45 12 -17 0 -36 6 -40 13 -4 7
-29 21 -55 31 -38 14 -48 22 -48 41 0 12 -7 28 -16 36 -9 8 -13 21 -10 35 4
14 1 24 -8 27 -10 4 -14 24 -15 66 0 33 -1 63 -2 68 -2 4 1 30 6 57 14 85 84
145 172 146 32 0 45 -5 57 -21z m1943 -765 c14 -24 21 -48 17 -63 -6 -27 -86
-151 -141 -219 l-36 -43 -28 43 c-16 24 -29 49 -29 57 0 21 172 272 184 268 5
-2 20 -21 33 -43z m-1787 14 c1 -7 7 -26 14 -43 l13 -30 16 30 c15 28 16 28
17 7 0 -18 4 -22 19 -17 19 6 51 -17 51 -36 0 -5 5 -8 11 -6 22 4 50 -61 56
-131 7 -83 -6 -117 -42 -108 -20 5 -24 1 -30 -24 -4 -17 -11 -30 -16 -30 -6 0
-8 -9 -4 -20 11 -33 -36 -37 -99 -6 -29 14 -57 26 -62 26 -23 0 -76 72 -89
122 -13 51 -10 118 5 118 5 0 11 18 15 40 5 30 11 40 25 40 19 0 80 54 80 71
0 14 20 11 20 -3z m2886 -533 c-3 -8 -2 -15 3 -15 4 0 13 -18 20 -40 6 -22 16
-40 20 -40 5 0 12 -16 15 -35 4 -19 22 -51 41 -71 28 -30 35 -46 38 -88 5 -66
26 -124 46 -129 11 -2 5 -9 -17 -21 -33 -17 -33 -18 -16 -37 30 -33 -8 -23
-41 11 -15 16 -31 28 -36 27 -12 -3 -79 63 -79 78 0 7 -6 18 -14 24 -8 7 -18
26 -21 42 -6 27 -25 42 -25 19 0 -5 -4 -10 -10 -10 -5 0 -10 7 -10 15 0 8 -4
15 -10 15 -5 0 -16 13 -25 30 -10 19 -20 27 -30 24 -25 -10 -18 41 12 78 39
49 127 137 137 138 4 0 6 -7 2 -15z m-1742 -335 c18 -31 19 -34 2 -65 -20 -36
-122 -145 -137 -145 -13 0 -11 18 4 23 8 4 9 8 1 14 -6 4 -14 21 -18 36 -6 24
2 40 50 103 31 41 61 73 67 71 7 -2 20 -18 31 -37z m843 -546 c-11 -11 14 -62
34 -67 10 -3 19 -13 19 -22 0 -19 30 -64 72 -110 15 -16 28 -35 28 -41 0 -7 6
-14 14 -17 7 -3 18 -25 24 -50 7 -24 18 -50 27 -57 8 -7 15 -21 15 -31 0 -9
14 -27 30 -39 23 -16 29 -27 24 -44 -4 -16 0 -25 10 -29 9 -4 16 -15 16 -25 0
-10 5 -23 12 -30 9 -9 9 -12 0 -12 -7 0 -12 4 -12 10 0 5 -6 7 -13 4 -8 -3
-11 -17 -9 -40 2 -19 -1 -48 -8 -64 -12 -30 -42 -49 -48 -31 -2 6 -10 11 -18
11 -8 0 -17 7 -20 15 -4 8 -15 15 -25 15 -10 0 -19 5 -19 10 0 6 -6 10 -13 10
-7 0 -27 14 -45 30 -18 17 -35 30 -37 30 -15 0 -83 57 -102 85 -13 19 -28 35
-32 35 -5 0 -11 10 -15 23 -3 13 -17 29 -31 35 -13 6 -22 17 -20 24 3 7 -7 19
-22 26 -16 7 -39 30 -53 52 -17 28 -31 40 -47 40 -13 0 -23 4 -23 10 0 5 7 7
15 4 17 -7 21 11 5 21 -6 4 -1 14 12 25 136 113 246 199 257 200 2 0 2 -3 -2
-6z m-2449 -906 c4 -20 -2 -25 -108 -94 -126 -83 -190 -112 -190 -86 0 14 16
28 95 82 44 29 100 69 124 87 47 35 74 39 79 11z"/>
</g>
</svg>
